<svg width="20" height="20" viewBox="0 0 20 20" fill="none" xmlns="http://www.w3.org/2000/svg">
<path d="M10.8327 18.3333H7.49935C7.27834 18.3333 7.06637 18.2455 6.91009 18.0892C6.75381 17.9329 6.66602 17.721 6.66602 17.5V12.3333H4.99935C4.77834 12.3333 4.56637 12.2455 4.41009 12.0892C4.25381 11.9329 4.16602 11.721 4.16602 11.5V8.49996C4.16602 8.27895 4.25381 8.06699 4.41009 7.91071C4.56637 7.75443 4.77834 7.66663 4.99935 7.66663H6.66602V6.24996C6.72443 4.98026 7.2832 3.78533 8.22016 2.92645C9.15712 2.06757 10.396 1.61462 11.666 1.66663H14.166C14.387 1.66663 14.599 1.75443 14.7553 1.91071C14.9116 2.06699 14.9993 2.27895 14.9993 2.49996V5.49996C14.9993 5.72098 14.9116 5.93294 14.7553 6.08922C14.599 6.2455 14.387 6.3333 14.166 6.3333H11.666V7.66663H14.166C14.2947 7.66565 14.4218 7.69449 14.5375 7.75087C14.6532 7.80726 14.7542 7.88966 14.8327 7.99163C14.9103 8.09513 14.9628 8.21527 14.9859 8.34256C15.0091 8.46984 15.0022 8.60077 14.966 8.72496L14.1327 11.725C14.0823 11.9052 13.9727 12.0632 13.8215 12.1736C13.6703 12.284 13.4864 12.3402 13.2993 12.3333H11.666V17.5C11.666 17.721 11.5782 17.9329 11.4219 18.0892C11.2657 18.2455 11.0537 18.3333 10.8327 18.3333ZM8.33268 16.6666H9.99935V11.5C9.99935 11.2789 10.0871 11.067 10.2434 10.9107C10.3997 10.7544 10.6117 10.6666 10.8327 10.6666H12.6993L13.066 9.3333H10.8327C10.6117 9.3333 10.3997 9.2455 10.2434 9.08922C10.0871 8.93294 9.99935 8.72098 9.99935 8.49996V6.24996C10.0207 5.82254 10.2057 5.41972 10.516 5.12496C10.8263 4.8302 11.2381 4.66609 11.666 4.66663H13.3327V3.3333H11.666C10.8384 3.28287 10.0242 3.56082 9.40017 4.10685C8.77614 4.65288 8.39257 5.42294 8.33268 6.24996V8.49996C8.33268 8.72098 8.24488 8.93294 8.0886 9.08922C7.93232 9.2455 7.72036 9.3333 7.49935 9.3333H5.83268V10.6666H7.49935C7.72036 10.6666 7.93232 10.7544 8.0886 10.9107C8.24488 11.067 8.33268 11.2789 8.33268 11.5V16.6666Z" fill="white"/>
</svg>
