<svg width="20" height="20" viewBox="0 0 20 20" fill="none" xmlns="http://www.w3.org/2000/svg">
<path d="M19.1673 2.50838C19.1673 2.50838 17.4856 3.50171 16.5507 3.78338C16.0488 3.20631 15.3818 2.79729 14.6398 2.61165C13.8979 2.42601 13.1169 2.47271 12.4024 2.74542C11.6879 3.01814 11.0744 3.50371 10.6448 4.13648C10.2153 4.76924 9.9904 5.51866 10.0007 6.28338V7.11671C8.53618 7.15469 7.08505 6.82989 5.77649 6.17125C4.46794 5.51261 3.34258 4.54058 2.50065 3.34171C2.50065 3.34171 -0.832682 10.8417 6.66732 14.175C4.95109 15.34 2.90661 15.9242 0.833984 15.8417C8.33398 20.0084 17.5006 15.8417 17.5006 6.25838C17.5006 6.02671 17.4773 5.79505 17.434 5.56671C18.284 4.72838 19.1673 2.50838 19.1673 2.50838Z" stroke="white" stroke-width="1.5" stroke-linecap="round" stroke-linejoin="round"/>
</svg>
