<svg width="127" height="22" viewBox="0 0 127 22" fill="none" xmlns="http://www.w3.org/2000/svg">
<path d="M16.2544 12.9903C16.0194 13.218 15.9115 13.5473 15.965 13.8702L16.7715 18.3333C16.8395 18.7115 16.6798 19.0943 16.3632 19.313C16.053 19.5397 15.6403 19.567 15.3019 19.3855L11.2842 17.2901C11.1445 17.2157 10.9894 17.1758 10.8307 17.1712H10.5849C10.4996 17.1839 10.4161 17.2112 10.3399 17.2529L6.32136 19.3583C6.1227 19.4581 5.89773 19.4935 5.6773 19.4581C5.14028 19.3565 4.78197 18.8449 4.86996 18.3051L5.6773 13.8421C5.73082 13.5164 5.62287 13.1853 5.38793 12.954L2.1123 9.77907C1.83834 9.51328 1.7431 9.11415 1.86828 8.75402C1.98983 8.39479 2.30007 8.13264 2.67471 8.07367L7.18313 7.41963C7.52602 7.38426 7.82719 7.17562 7.9814 6.8672L9.96801 2.7942C10.0152 2.70349 10.076 2.62003 10.1494 2.54928L10.2311 2.48578C10.2737 2.43861 10.3227 2.3996 10.3771 2.36785L10.476 2.33157L10.6302 2.26807H11.0121C11.3532 2.30344 11.6534 2.50755 11.8104 2.81234L13.8233 6.8672C13.9684 7.16383 14.2505 7.36974 14.5762 7.41963L19.0846 8.07367C19.4656 8.1281 19.784 8.39117 19.9101 8.75402C20.0289 9.11777 19.9264 9.51691 19.647 9.77907L16.2544 12.9903Z" fill="#D97706"/>
<path d="M43.4683 12.9903C43.2333 13.218 43.1254 13.5473 43.1789 13.8702L43.9853 18.3333C44.0534 18.7115 43.8937 19.0943 43.5771 19.313C43.2669 19.5397 42.8541 19.567 42.5158 19.3855L38.4981 17.2901C38.3584 17.2157 38.2033 17.1758 38.0446 17.1712H37.7987C37.7135 17.1839 37.63 17.2112 37.5538 17.2529L33.5352 19.3583C33.3366 19.4581 33.1116 19.4935 32.8912 19.4581C32.3542 19.3565 31.9958 18.8449 32.0838 18.3051L32.8912 13.8421C32.9447 13.5164 32.8367 13.1853 32.6018 12.954L29.3262 9.77907C29.0522 9.51328 28.957 9.11415 29.0821 8.75402C29.2037 8.39479 29.5139 8.13264 29.8886 8.07367L34.397 7.41963C34.7399 7.38426 35.0411 7.17562 35.1953 6.8672L37.1819 2.7942C37.229 2.70349 37.2898 2.62003 37.3633 2.54928L37.4449 2.48578C37.4876 2.43861 37.5366 2.3996 37.591 2.36785L37.6899 2.33157L37.8441 2.26807H38.226C38.5671 2.30344 38.8673 2.50755 39.0242 2.81234L41.0372 6.8672C41.1823 7.16383 41.4644 7.36974 41.7901 7.41963L46.2985 8.07367C46.6795 8.1281 46.9979 8.39117 47.124 8.75402C47.2428 9.11777 47.1403 9.51691 46.8609 9.77907L43.4683 12.9903Z" fill="#D97706"/>
<path d="M70.6821 12.9903C70.4472 13.218 70.3392 13.5473 70.3928 13.8702L71.1992 18.3333C71.2672 18.7115 71.1076 19.0943 70.791 19.313C70.4807 19.5397 70.068 19.567 69.7296 19.3855L65.712 17.2901C65.5723 17.2157 65.4172 17.1758 65.2584 17.1712H65.0126C64.9273 17.1839 64.8439 17.2112 64.7677 17.2529L60.7491 19.3583C60.5504 19.4581 60.3255 19.4935 60.105 19.4581C59.568 19.3565 59.2097 18.8449 59.2977 18.3051L60.105 13.8421C60.1586 13.5164 60.0506 13.1853 59.8157 12.954L56.54 9.77907C56.2661 9.51328 56.1708 9.11415 56.296 8.75402C56.4176 8.39479 56.7278 8.13264 57.1024 8.07367L61.6109 7.41963C61.9538 7.38426 62.2549 7.17562 62.4091 6.8672L64.3957 2.7942C64.4429 2.70349 64.5037 2.62003 64.5772 2.54928L64.6588 2.48578C64.7014 2.43861 64.7504 2.3996 64.8049 2.36785L64.9037 2.33157L65.0579 2.26807H65.4398C65.7809 2.30344 66.0812 2.50755 66.2381 2.81234L68.251 6.8672C68.3962 7.16383 68.6783 7.36974 69.0039 7.41963L73.5124 8.07367C73.8934 8.1281 74.2118 8.39117 74.3378 8.75402C74.4567 9.11777 74.3542 9.51691 74.0748 9.77907L70.6821 12.9903Z" fill="#D97706"/>
<path d="M97.8955 12.9903C97.6606 13.218 97.5526 13.5473 97.6061 13.8702L98.4126 18.3333C98.4806 18.7115 98.3209 19.0943 98.0044 19.313C97.6941 19.5397 97.2814 19.567 96.943 19.3855L92.9254 17.2901C92.7857 17.2157 92.6305 17.1758 92.4718 17.1712H92.226C92.1407 17.1839 92.0572 17.2112 91.981 17.2529L87.9625 19.3583C87.7638 19.4581 87.5388 19.4935 87.3184 19.4581C86.7814 19.3565 86.4231 18.8449 86.5111 18.3051L87.3184 13.8421C87.3719 13.5164 87.264 13.1853 87.029 12.954L83.7534 9.77907C83.4795 9.51328 83.3842 9.11415 83.5094 8.75402C83.6309 8.39479 83.9412 8.13264 84.3158 8.07367L88.8242 7.41963C89.1671 7.38426 89.4683 7.17562 89.6225 6.8672L91.6091 2.7942C91.6563 2.70349 91.7171 2.62003 91.7905 2.54928L91.8722 2.48578C91.9148 2.43861 91.9638 2.3996 92.0182 2.36785L92.1171 2.33157L92.2713 2.26807H92.6532C92.9943 2.30344 93.2946 2.50755 93.4515 2.81234L95.4644 6.8672C95.6095 7.16383 95.8917 7.36974 96.2173 7.41963L100.726 8.07367C101.107 8.1281 101.425 8.39117 101.551 8.75402C101.67 9.11777 101.568 9.51691 101.288 9.77907L97.8955 12.9903Z" fill="#D97706"/>
<path d="M123.295 13.4434C123.06 13.6711 122.953 14.0004 123.006 14.3233L123.812 18.7864C123.881 19.1647 123.721 19.5475 123.404 19.7661C123.094 19.9929 122.681 20.0201 122.343 19.8387L118.325 17.7432C118.186 17.6688 118.03 17.6289 117.872 17.6244H117.626C117.541 17.6371 117.457 17.6643 117.381 17.706L113.362 19.8114C113.164 19.9112 112.939 19.9466 112.718 19.9112C112.181 19.8096 111.823 19.298 111.911 18.7583L112.718 14.2952C112.772 13.9696 112.664 13.6385 112.429 13.4071L109.153 10.2322C108.879 9.96641 108.784 9.56727 108.909 9.20714C109.031 8.84792 109.341 8.58576 109.716 8.5268L114.224 7.87276C114.567 7.83738 114.868 7.62874 115.022 7.32032L117.009 3.24732C117.056 3.15661 117.117 3.07316 117.19 3.0024L117.272 2.9389C117.315 2.89173 117.364 2.85272 117.418 2.82098L117.517 2.78469L117.671 2.72119H118.053C118.394 2.75657 118.694 2.96067 118.851 3.26547L120.864 7.32032C121.009 7.61695 121.292 7.82287 121.617 7.87276L126.126 8.5268C126.507 8.58122 126.825 8.84429 126.951 9.20714C127.07 9.5709 126.967 9.97003 126.688 10.2322L123.295 13.4434Z" fill="#D97706"/>
</svg>
