<svg width="24" height="15" viewBox="0 0 24 15" fill="none" xmlns="http://www.w3.org/2000/svg">
<path d="M0 14.9999V8.33325C0 7.93859 0.113778 7.51814 0.341333 7.07192C0.568889 6.6257 0.899556 6.29059 1.33333 6.06659V2.99992C1.33333 2.24792 1.58978 1.61547 2.10267 1.10259C2.61556 0.589697 3.248 0.333252 4 0.333252H10C10.4596 0.333252 10.852 0.427918 11.1773 0.617252C11.5018 0.805696 11.776 1.06659 12 1.39992C12.224 1.06659 12.4982 0.805696 12.8227 0.617252C13.148 0.427918 13.5404 0.333252 14 0.333252H20C20.752 0.333252 21.3844 0.589697 21.8973 1.10259C22.4102 1.61547 22.6667 2.24792 22.6667 2.99992V6.06659C23.1013 6.29059 23.432 6.6257 23.6587 7.07192C23.8862 7.51814 24 7.93859 24 8.33325V14.9999H22.6667V12.3333H1.33333V14.9999H0ZM12.6667 5.66659H21.3333V2.99992C21.3333 2.62214 21.2053 2.3057 20.9493 2.05059C20.6933 1.79547 20.3769 1.66747 20 1.66659H14C13.6222 1.66659 13.3058 1.79459 13.0507 2.05059C12.7956 2.30659 12.6676 2.62303 12.6667 2.99992V5.66659ZM2.66667 5.66659H11.3333V2.99992C11.3333 2.62214 11.2053 2.3057 10.9493 2.05059C10.6933 1.79547 10.3769 1.66747 10 1.66659H4C3.62222 1.66659 3.30578 1.79459 3.05067 2.05059C2.79556 2.30659 2.66756 2.62303 2.66667 2.99992V5.66659ZM1.33333 10.9999H22.6667V8.33325C22.6667 7.95547 22.5387 7.63903 22.2827 7.38392C22.0267 7.12881 21.7102 7.00081 21.3333 6.99992H2.66667C2.28889 6.99992 1.97244 7.12792 1.71733 7.38392C1.46222 7.63992 1.33422 7.95636 1.33333 8.33325V10.9999Z" fill="black"/>
</svg>
