<svg width="22" height="14" viewBox="0 0 22 14" fill="none" xmlns="http://www.w3.org/2000/svg">
<path d="M9.63224 9.73162C10.6226 9.16497 11.3993 8.28336 11.8412 7.22432C12.2831 6.16528 12.3654 4.98837 12.0751 3.8772C11.7848 2.76603 11.1384 1.78309 10.2366 1.08172C9.33485 0.380353 8.22848 0 7.09009 0C5.9517 0 4.84532 0.380353 3.94356 1.08172C3.04179 1.78309 2.39535 2.76603 2.10508 3.8772C1.81482 4.98837 1.89705 6.16528 2.33895 7.22432C2.78085 8.28336 3.55757 9.16497 4.54794 9.73162C2.71241 10.3223 1.13608 11.5363 0.0867331 13.1673C0.00940997 13.2868 -0.0176882 13.4325 0.0114 13.5723C0.0404881 13.712 0.12338 13.8344 0.24184 13.9124C0.3603 13.9905 0.504624 14.0179 0.643064 13.9885C0.781503 13.9591 0.902718 13.8755 0.980041 13.7559C1.6419 12.7286 2.54744 11.8845 3.61445 11.3002C4.68147 10.7158 5.87617 10.4098 7.09009 10.4098C8.30401 10.4098 9.49871 10.7158 10.5657 11.3002C11.6327 11.8845 12.5383 12.7286 13.2001 13.7559C13.2825 13.8624 13.4015 13.9338 13.5336 13.9558C13.6657 13.9779 13.8012 13.949 13.9131 13.8748C14.0251 13.8007 14.1053 13.6868 14.1379 13.5557C14.1705 13.4246 14.153 13.286 14.089 13.1673C13.0408 11.5371 11.4661 10.3232 9.63224 9.73162ZM3.00132 5.2067C3.00132 4.39037 3.24112 3.59237 3.6904 2.91362C4.13968 2.23486 4.77826 1.70584 5.52538 1.39344C6.27251 1.08105 7.09462 0.999311 7.88777 1.15857C8.68091 1.31783 9.40946 1.71093 9.98128 2.28816C10.5531 2.86539 10.9425 3.60083 11.1003 4.40147C11.2581 5.20212 11.1771 6.03201 10.8676 6.7862C10.5581 7.54039 10.0341 8.18501 9.36169 8.63854C8.68929 9.09206 7.89877 9.33413 7.09009 9.33413C6.00611 9.33271 4.96694 8.8974 4.20045 8.12366C3.43396 7.34993 3.00273 6.30092 3.00132 5.2067ZM21.7563 13.9102C21.638 13.9882 21.4938 14.0155 21.3554 13.9863C21.2171 13.957 21.096 13.8735 21.0186 13.7541C20.3579 12.7267 19.453 11.8826 18.3864 11.2987C17.3199 10.7147 16.1254 10.4095 14.9121 10.4109C14.7706 10.4109 14.635 10.3541 14.535 10.2532C14.435 10.1522 14.3788 10.0153 14.3788 9.87249C14.3788 9.72971 14.435 9.59278 14.535 9.49182C14.635 9.39085 14.7706 9.33413 14.9121 9.33413C15.5142 9.33352 16.1087 9.19868 16.6532 8.93925C17.1977 8.67982 17.6787 8.3022 18.0619 7.83336C18.4451 7.36453 18.7209 6.81606 18.8698 6.22713C19.0187 5.6382 19.0368 5.02335 18.923 4.42652C18.8092 3.82968 18.5662 3.26558 18.2114 2.77452C17.8566 2.28346 17.3988 1.87756 16.8706 1.58582C16.3424 1.29408 15.7568 1.1237 15.1558 1.08686C14.5548 1.05001 13.9532 1.1476 13.3939 1.37267C13.3288 1.39959 13.259 1.41323 13.1886 1.41281C13.1182 1.41238 13.0486 1.39789 12.9838 1.37018C12.919 1.34246 12.8603 1.30207 12.811 1.25133C12.7617 1.2006 12.7229 1.14051 12.6967 1.07455C12.6705 1.00859 12.6576 0.938051 12.6586 0.867005C12.6595 0.795959 12.6744 0.72581 12.7024 0.660604C12.7303 0.595397 12.7708 0.536422 12.8215 0.48708C12.8721 0.437738 12.9319 0.399004 12.9975 0.373111C14.2106 -0.115116 15.5621 -0.120375 16.7789 0.358397C17.9958 0.83717 18.9872 1.76429 19.5531 2.95247C20.1189 4.14065 20.217 5.50134 19.8274 6.75966C19.4378 8.01799 18.5896 9.08016 17.4542 9.73162C19.2898 10.3223 20.8661 11.5363 21.9154 13.1673C21.9917 13.2872 22.0178 13.4327 21.988 13.5719C21.9581 13.7112 21.8748 13.8328 21.7563 13.9102Z" fill="black"/>
</svg>
