<svg width="256" height="40" viewBox="0 0 256 40" fill="none" xmlns="http://www.w3.org/2000/svg">
    <path fill-rule="evenodd" clip-rule="evenodd"
        d="M25.5557 11.6853C23.9112 10.5865 21.9778 10 20 10V0C23.9556 0 27.8224 1.17298 31.1114 3.37061C34.4004 5.56823 36.9638 8.69181 38.4776 12.3463C39.9913 16.0008 40.3874 20.0222 39.6157 23.9018C38.844 27.7814 36.9392 31.3451 34.1421 34.1421C31.3451 36.9392 27.7814 38.844 23.9018 39.6157C20.0222 40.3874 16.0008 39.9913 12.3463 38.4776C8.69181 36.9638 5.56823 34.4004 3.37061 31.1114C1.17298 27.8224 0 23.9556 0 20H10C10 21.9778 10.5865 23.9112 11.6853 25.5557C12.7841 27.2002 14.3459 28.4819 16.1732 29.2388C18.0004 29.9957 20.0111 30.1937 21.9509 29.8078C23.8907 29.422 25.6725 28.4696 27.0711 27.0711C28.4696 25.6725 29.422 23.8907 29.8078 21.9509C30.1937 20.0111 29.9957 18.0004 29.2388 16.1732C28.4819 14.3459 27.2002 12.7841 25.5557 11.6853Z"
        fill="#2563EB" />
    <path fill-rule="evenodd" clip-rule="evenodd"
        d="M10 4.33125e-06C10 1.31322 9.74135 2.61358 9.2388 3.82683C8.73625 5.04009 7.99965 6.14248 7.07106 7.07107C6.14249 7.99966 5.04009 8.73625 3.82683 9.2388C2.61357 9.74134 1.31322 10 4.3711e-07 10L0 20C2.62644 20 5.22715 19.4827 7.65368 18.4776C10.0802 17.4725 12.285 15.9993 14.1421 14.1421C15.9993 12.285 17.4725 10.0802 18.4776 7.65367C19.4827 5.22715 20 2.62643 20 0L10 4.33125e-06Z"
        fill="#2563EB" />
    <path
        d="M57.08 31.512C55.2453 31.512 53.6773 31.1387 52.376 30.392C51.0746 29.624 50.0826 28.5787 49.4 27.256C48.7386 25.9334 48.3973 24.408 48.376 22.68L53.944 22.424C54.008 25.4534 55.0533 26.968 57.08 26.968C58.04 26.968 58.7866 26.6267 59.32 25.944C59.8533 25.24 60.12 24.1734 60.12 22.744V8.28003H65.688V22.744C65.688 24.4934 65.3253 26.04 64.6 27.384C63.8746 28.7067 62.8613 29.7307 61.56 30.456C60.28 31.16 58.7866 31.512 57.08 31.512Z"
        fill="#2563EB" />
    <path
        d="M73.391 31.384C71.535 31.384 70.0416 30.968 68.911 30.136C67.8016 29.304 67.247 28.152 67.247 26.68C67.247 25.208 67.7163 24.056 68.655 23.224C69.615 22.3707 71.0656 21.7414 73.007 21.336L78.351 20.248C78.351 19.2454 78.127 18.488 77.679 17.976C77.2523 17.4427 76.623 17.176 75.791 17.176C74.191 17.176 73.263 17.9334 73.007 19.448L67.535 19.256C67.8763 17.2934 68.751 15.832 70.159 14.872C71.567 13.8907 73.4443 13.4 75.791 13.4C81.167 13.4 83.855 15.8214 83.855 20.664V26.104C83.855 26.616 83.9296 26.968 84.079 27.16C84.2496 27.3307 84.5056 27.416 84.847 27.416H85.263V31C85.0283 31.064 84.7296 31.1174 84.367 31.16C84.0043 31.2027 83.6523 31.224 83.311 31.224C81.0923 31.224 79.7803 30.264 79.375 28.344C78.9056 29.304 78.1696 30.0507 77.167 30.584C76.1643 31.1174 74.9056 31.384 73.391 31.384ZM74.799 27.8C75.8656 27.8 76.719 27.4907 77.359 26.872C78.0203 26.232 78.351 25.336 78.351 24.184V23.48L74.991 24.248C73.6043 24.5467 72.911 25.1867 72.911 26.168C72.911 26.68 73.071 27.0854 73.391 27.384C73.711 27.6614 74.1803 27.8 74.799 27.8Z"
        fill="#2563EB" />
    <path
        d="M86.6732 13.784H91.6012L91.7292 16.504C92.1772 15.5227 92.8066 14.7654 93.6172 14.232C94.4279 13.6774 95.3452 13.4 96.3692 13.4C97.5639 13.4 98.5666 13.7094 99.3772 14.328C100.209 14.9467 100.817 15.8 101.201 16.888C101.607 15.7574 102.225 14.8934 103.057 14.296C103.889 13.6987 104.871 13.4 106.001 13.4C107.772 13.4 109.18 13.9654 110.225 15.096C111.292 16.2267 111.825 17.8374 111.825 19.928V31H106.321V21.496C106.321 20.1947 106.14 19.2347 105.777 18.616C105.415 17.9974 104.839 17.688 104.049 17.688C103.281 17.688 102.695 18.0294 102.289 18.712C101.884 19.3734 101.681 20.3227 101.681 21.56V31H96.7852V21.56C96.7852 20.2374 96.6146 19.2667 96.2732 18.648C95.9319 18.008 95.3559 17.688 94.5452 17.688C93.7772 17.688 93.1906 18.0294 92.7852 18.712C92.3799 19.3734 92.1772 20.3227 92.1772 21.56V31H86.6732V13.784Z"
        fill="#2563EB" />
    <path
        d="M124.984 31.384C123.79 31.384 122.755 31.1387 121.88 30.648C121.006 30.136 120.323 29.4214 119.832 28.504L119.736 31H114.424V8.28003H119.928V16.248C120.419 15.3947 121.102 14.712 121.976 14.2C122.851 13.6667 123.854 13.4 124.984 13.4C126.414 13.4 127.662 13.7734 128.728 14.52C129.795 15.2454 130.616 16.2907 131.192 17.656C131.79 19.0214 132.088 20.6 132.088 22.392C132.088 24.184 131.79 25.7627 131.192 27.128C130.616 28.4934 129.795 29.5494 128.728 30.296C127.662 31.0214 126.414 31.384 124.984 31.384ZM123.256 27.32C124.216 27.32 124.984 26.8827 125.56 26.008C126.136 25.1334 126.424 23.928 126.424 22.392C126.424 20.8347 126.136 19.6294 125.56 18.776C125.006 17.9014 124.248 17.464 123.288 17.464C122.222 17.464 121.39 17.8907 120.792 18.744C120.216 19.5974 119.928 20.8134 119.928 22.392C119.928 23.9494 120.216 25.1654 120.792 26.04C121.39 26.8934 122.211 27.32 123.256 27.32Z"
        fill="#2563EB" />
    <path
        d="M141.837 31.384C140.045 31.384 138.467 31.0107 137.101 30.264C135.736 29.5174 134.68 28.472 133.933 27.128C133.187 25.7627 132.813 24.184 132.813 22.392C132.813 20.6 133.187 19.032 133.933 17.688C134.68 16.3227 135.736 15.2667 137.101 14.52C138.467 13.7734 140.045 13.4 141.837 13.4C143.629 13.4 145.208 13.7734 146.573 14.52C147.939 15.2667 148.995 16.3227 149.741 17.688C150.488 19.032 150.861 20.6 150.861 22.392C150.861 24.184 150.488 25.7627 149.741 27.128C148.995 28.472 147.939 29.5174 146.573 30.264C145.208 31.0107 143.629 31.384 141.837 31.384ZM141.837 27.32C142.904 27.32 143.725 26.8934 144.301 26.04C144.899 25.1867 145.197 23.9707 145.197 22.392C145.197 20.8347 144.899 19.6294 144.301 18.776C143.725 17.9014 142.904 17.464 141.837 17.464C140.749 17.464 139.917 17.9014 139.341 18.776C138.765 19.6294 138.477 20.8347 138.477 22.392C138.477 23.9707 138.765 25.1867 139.341 26.04C139.917 26.8934 140.749 27.32 141.837 27.32Z"
        fill="#2563EB" />
    <path
        d="M158.683 8.28003H164.251V17.272H171.931V8.28003H177.499V31H171.931V21.848H164.251V31H158.683V8.28003Z"
        fill="#2563EB" />
    <path
        d="M188.372 31.384C186.58 31.384 185.002 31.0107 183.636 30.264C182.271 29.5174 181.215 28.472 180.468 27.128C179.722 25.7627 179.348 24.184 179.348 22.392C179.348 20.6 179.722 19.032 180.468 17.688C181.215 16.3227 182.271 15.2667 183.636 14.52C185.002 13.7734 186.58 13.4 188.372 13.4C190.164 13.4 191.743 13.7734 193.108 14.52C194.474 15.2667 195.53 16.3227 196.276 17.688C197.023 19.032 197.396 20.6 197.396 22.392C197.396 24.184 197.023 25.7627 196.276 27.128C195.53 28.472 194.474 29.5174 193.108 30.264C191.743 31.0107 190.164 31.384 188.372 31.384ZM188.372 27.32C189.439 27.32 190.26 26.8934 190.836 26.04C191.434 25.1867 191.732 23.9707 191.732 22.392C191.732 20.8347 191.434 19.6294 190.836 18.776C190.26 17.9014 189.439 17.464 188.372 17.464C187.284 17.464 186.452 17.9014 185.876 18.776C185.3 19.6294 185.012 20.8347 185.012 22.392C185.012 23.9707 185.3 25.1867 185.876 26.04C186.452 26.8934 187.284 27.32 188.372 27.32Z"
        fill="#2563EB" />
    <path
        d="M205.855 31C203.999 31 202.633 30.5627 201.759 29.688C200.905 28.8134 200.479 27.4374 200.479 25.56V17.752H197.631V13.784H200.479V9.75203H205.983V13.784H210.495V17.752H205.983V24.856C205.983 25.6667 206.153 26.232 206.495 26.552C206.836 26.872 207.38 27.032 208.127 27.032H210.495V31H205.855Z"
        fill="#2563EB" />
    <path
        d="M219.873 31.384C218.081 31.384 216.503 31.0107 215.137 30.264C213.793 29.5174 212.748 28.472 212.001 27.128C211.276 25.7627 210.913 24.184 210.913 22.392C210.913 20.6 211.276 19.032 212.001 17.688C212.748 16.3227 213.793 15.2667 215.137 14.52C216.481 13.7734 218.049 13.4 219.841 13.4C221.612 13.4 223.148 13.784 224.449 14.552C225.772 15.2987 226.785 16.3867 227.489 17.816C228.193 19.224 228.545 20.888 228.545 22.808V23.832H216.577C216.62 25.0054 216.94 25.8907 217.537 26.488C218.135 27.0854 218.945 27.384 219.969 27.384C221.484 27.384 222.433 26.7654 222.817 25.528L228.321 25.848C227.852 27.6187 226.871 28.984 225.377 29.944C223.884 30.904 222.049 31.384 219.873 31.384ZM223.009 20.696C222.945 19.5867 222.636 18.744 222.081 18.168C221.527 17.592 220.78 17.304 219.841 17.304C218.924 17.304 218.167 17.6027 217.569 18.2C216.993 18.7974 216.663 19.6294 216.577 20.696H223.009Z"
        fill="#2563EB" />
    <path
        d="M235.078 31C233.5 31 232.294 30.6054 231.462 29.816C230.63 29.0267 230.214 27.7894 230.214 26.104V8.28003H235.718V25.496C235.718 26.0294 235.846 26.424 236.102 26.68C236.358 26.9147 236.732 27.032 237.222 27.032H238.246V31H235.078Z"
        fill="#2563EB" />
    <path
        d="M247.428 31.384C244.74 31.384 242.671 30.8614 241.22 29.816C239.791 28.7494 239.012 27.3414 238.884 25.592L244.42 25.4C244.57 26.168 244.89 26.744 245.38 27.128C245.871 27.512 246.564 27.704 247.46 27.704C249.018 27.704 249.796 27.2134 249.796 26.232C249.796 25.72 249.583 25.336 249.156 25.08C248.751 24.8027 247.908 24.5574 246.628 24.344C244.73 24.0454 243.258 23.6827 242.212 23.256C241.167 22.808 240.42 22.2534 239.972 21.592C239.524 20.9307 239.3 20.0667 239.3 19C239.3 17.272 239.983 15.9067 241.348 14.904C242.714 13.9014 244.708 13.4 247.332 13.4C249.786 13.4 251.684 13.944 253.028 15.032C254.394 16.0987 255.183 17.5707 255.396 19.448L249.924 19.64C249.818 18.8294 249.53 18.2 249.06 17.752C248.612 17.304 248.015 17.08 247.268 17.08C246.543 17.08 245.978 17.24 245.572 17.56C245.167 17.8587 244.964 18.2747 244.964 18.808C244.964 19.3627 245.167 19.7787 245.572 20.056C245.999 20.312 246.756 20.5254 247.844 20.696C250.596 21.08 252.548 21.6987 253.7 22.552C254.874 23.384 255.46 24.568 255.46 26.104C255.46 27.7894 254.746 29.0907 253.316 30.008C251.908 30.9254 249.946 31.384 247.428 31.384Z"
        fill="#2563EB" />
</svg>