<svg width="20" height="22" viewBox="0 0 20 22" fill="none" xmlns="http://www.w3.org/2000/svg">
<path d="M9.81005 6.25342C10.3663 6.25342 10.9101 6.08847 11.3726 5.77943C11.8351 5.47039 12.1956 5.03113 12.4085 4.51722C12.6213 4.0033 12.677 3.4378 12.5685 2.89223C12.46 2.34666 12.1921 1.84552 11.7988 1.45218C11.4055 1.05885 10.9043 0.790982 10.3587 0.682461C9.81317 0.57394 9.24767 0.629637 8.73375 0.842508C8.21983 1.05538 7.78058 1.41586 7.47154 1.87838C7.1625 2.34089 6.99755 2.88466 6.99755 3.44092C6.99755 4.18684 7.29386 4.90221 7.82131 5.42966C8.34876 5.9571 9.06413 6.25342 9.81005 6.25342ZM9.81005 1.75342C10.1438 1.75342 10.4701 1.85239 10.7476 2.03781C11.0251 2.22324 11.2414 2.48679 11.3691 2.79514C11.4968 3.10349 11.5302 3.44279 11.4651 3.77013C11.4 4.09748 11.2393 4.39816 11.0033 4.63416C10.7673 4.87016 10.4666 5.03088 10.1393 5.09599C9.81192 5.16111 9.47262 5.12769 9.16427 4.99997C8.85592 4.87224 8.59237 4.65595 8.40694 4.37844C8.22152 4.10094 8.12255 3.77467 8.12255 3.44092C8.12255 2.99337 8.30034 2.56414 8.61681 2.24768C8.93327 1.93121 9.3625 1.75342 9.81005 1.75342ZM19.3304 7.95404C19.2535 7.57601 19.0471 7.23668 18.7467 6.99465C18.4463 6.75262 18.0708 6.62309 17.685 6.62842H1.93505C1.55045 6.62842 1.17739 6.7598 0.877659 7.00079C0.577928 7.24178 0.36951 7.57793 0.286925 7.95356C0.204339 8.32919 0.252542 8.72176 0.423549 9.06624C0.594556 9.41073 0.878106 9.68647 1.22724 9.84779H1.23661L6.14161 12.004L4.13161 19.6447C4.02012 19.9018 3.97443 20.1827 3.99869 20.462C4.02294 20.7412 4.11637 21.01 4.27054 21.2441C4.42471 21.4782 4.63475 21.6702 4.88171 21.8027C5.12867 21.9353 5.40476 22.0043 5.68505 22.0034C6.00159 22.0026 6.31157 21.9131 6.57985 21.7451C6.84812 21.5771 7.06395 21.3372 7.20286 21.0528L9.81005 16.5659L12.4172 21.0575C12.6125 21.4489 12.9522 21.7493 13.3646 21.8951C13.7771 22.041 14.23 22.021 14.628 21.8393C15.026 21.6577 15.3378 21.3286 15.4978 20.9214C15.6579 20.5142 15.6535 20.0609 15.4857 19.6569L13.4757 12.0162L18.3807 9.85998H18.39C18.7455 9.70312 19.0345 9.42624 19.2064 9.0778C19.3783 8.72937 19.4222 8.33157 19.3304 7.95404ZM17.9241 8.82498L12.585 11.1762C12.4628 11.2301 12.3636 11.3256 12.3054 11.4459C12.2472 11.5661 12.2336 11.7032 12.2672 11.8325L14.4113 19.9822C14.4207 20.0142 14.4323 20.0455 14.446 20.0759C14.509 20.2112 14.5157 20.3659 14.4647 20.5061C14.4136 20.6464 14.3089 20.7605 14.1736 20.8236C14.0384 20.8866 13.8836 20.8933 13.7434 20.8422C13.6032 20.7912 13.489 20.6865 13.426 20.5512C13.4194 20.5358 13.4119 20.5207 13.4035 20.5062L10.2966 15.1597C10.2472 15.0744 10.1762 15.0037 10.0908 14.9545C10.0054 14.9053 9.90859 14.8794 9.81005 14.8794C9.7115 14.8794 9.61469 14.9053 9.5293 14.9545C9.4439 15.0037 9.37293 15.0744 9.32349 15.1597L6.21849 20.5081C6.21005 20.5231 6.20255 20.5372 6.19505 20.5531C6.16382 20.6203 6.11961 20.6807 6.06495 20.7308C6.0103 20.7809 5.94628 20.8197 5.87658 20.845C5.80688 20.8703 5.73288 20.8815 5.65882 20.8781C5.58476 20.8746 5.51211 20.8566 5.44505 20.825C5.37781 20.7938 5.3174 20.7495 5.26731 20.6949C5.21722 20.6402 5.17842 20.5762 5.15316 20.5065C5.12789 20.4368 5.11665 20.3628 5.12009 20.2887C5.12352 20.2147 5.14156 20.142 5.17317 20.075C5.1869 20.0446 5.19849 20.0132 5.20786 19.9812L7.35192 11.8315C7.38551 11.7022 7.37198 11.5652 7.31375 11.445C7.25552 11.3247 7.15639 11.2291 7.03411 11.1753L1.69786 8.82498C1.58229 8.77066 1.48864 8.67862 1.43232 8.56401C1.37599 8.4494 1.36034 8.31904 1.38794 8.19435C1.41554 8.06966 1.48474 7.95808 1.58417 7.87795C1.68361 7.79781 1.80735 7.7539 1.93505 7.75342H17.685C17.813 7.75326 17.9372 7.79672 18.0371 7.87663C18.137 7.95654 18.2067 8.06813 18.2347 8.19298C18.2626 8.31783 18.2472 8.44848 18.1909 8.56338C18.1346 8.67828 18.0399 8.77055 17.9241 8.82498Z" fill="black"/>
</svg>
