<svg width="21" height="22" viewBox="0 0 21 22" fill="none" xmlns="http://www.w3.org/2000/svg">
<path d="M17.7515 5.94092C17.7515 5.38466 17.5865 4.84089 17.2775 4.37838C16.9684 3.91586 16.5292 3.55538 16.0153 3.34251C15.5013 3.12964 14.9358 3.07394 14.3903 3.18246C13.8447 3.29098 13.3436 3.55884 12.9502 3.95218C12.5569 4.34552 12.289 4.84666 12.1805 5.39223C12.072 5.9378 12.1277 6.5033 12.3406 7.01721C12.5534 7.53113 12.9139 7.97039 13.3764 8.27943C13.8389 8.58847 14.3827 8.75342 14.939 8.75342C15.6849 8.75342 16.4003 8.4571 16.9277 7.92966C17.4551 7.40221 17.7515 6.68684 17.7515 5.94092ZM14.939 7.62842C14.6052 7.62842 14.2789 7.52945 14.0014 7.34402C13.7239 7.1586 13.5076 6.89505 13.3799 6.5867C13.2522 6.27835 13.2188 5.93905 13.2839 5.6117C13.349 5.28436 13.5097 4.98368 13.7457 4.74768C13.9817 4.51167 14.2824 4.35096 14.6097 4.28584C14.9371 4.22073 15.2764 4.25415 15.5847 4.38187C15.8931 4.50959 16.1566 4.72588 16.3421 5.00339C16.5275 5.2809 16.6265 5.60716 16.6265 5.94092C16.6265 6.38847 16.4487 6.81769 16.1322 7.13416C15.8157 7.45063 15.3865 7.62842 14.939 7.62842ZM14.4562 17.7534C14.7081 17.7533 14.9547 17.6807 15.1665 17.5442C15.3783 17.4077 15.5463 17.2131 15.6505 16.9837L18.6318 10.4269C19.5556 9.66569 20.2219 8.63787 20.5396 7.48381C20.8573 6.32975 20.811 5.10574 20.407 3.97899C20.003 2.85224 19.2609 1.8777 18.2822 1.18852C17.3036 0.499331 16.136 0.129105 14.939 0.128418C14.9076 0.12854 14.8762 0.131047 14.8452 0.135918L1.97334 2.28467C1.66732 2.33563 1.38924 2.49335 1.18845 2.72984C0.987657 2.96634 0.877125 3.26631 0.876465 3.57654V8.30529C0.877125 8.61553 0.987657 8.9155 1.18845 9.15199C1.38924 9.38848 1.66732 9.5462 1.97334 9.59717L11.3765 11.1675V16.4409C11.3765 16.789 11.5147 17.1229 11.7609 17.369C12.007 17.6151 12.3409 17.7534 12.689 17.7534H12.8765V17.9409C12.8765 18.8858 13.2518 19.7919 13.9199 20.46C14.588 21.1281 15.4941 21.5034 16.439 21.5034H17.939C18.0881 21.5034 18.2312 21.4442 18.3367 21.3387C18.4422 21.2332 18.5015 21.0901 18.5015 20.9409C18.5015 20.7917 18.4422 20.6487 18.3367 20.5432C18.2312 20.4377 18.0881 20.3784 17.939 20.3784H16.439C15.7925 20.3784 15.1725 20.1216 14.7154 19.6645C14.2583 19.2074 14.0015 18.5874 14.0015 17.9409V17.7534H14.4562ZM2.00146 8.30529V3.57654C2.00085 3.53174 2.0163 3.4882 2.04502 3.4538C2.07374 3.4194 2.11383 3.39643 2.15803 3.38904L14.984 1.25342C16.2272 1.25342 17.4195 1.74728 18.2985 2.62635C19.1776 3.50543 19.6715 4.69772 19.6715 5.94092C19.6715 7.18412 19.1776 8.3764 18.2985 9.25548C17.4195 10.1346 16.2272 10.6284 14.984 10.6284L2.15803 8.49092C2.11415 8.48358 2.07432 8.46088 2.04564 8.42687C2.01696 8.39287 2.0013 8.34978 2.00146 8.30529ZM12.5015 16.4409V11.355L14.8452 11.7459C14.8762 11.7508 14.9076 11.7533 14.939 11.7534C15.628 11.7539 16.3115 11.6313 16.9574 11.3915L14.6268 16.5187C14.6119 16.5515 14.5878 16.5792 14.5576 16.5986C14.5273 16.6181 14.4921 16.6284 14.4562 16.6284H12.689C12.6392 16.6284 12.5915 16.6087 12.5564 16.5735C12.5212 16.5383 12.5015 16.4906 12.5015 16.4409Z" fill="black"/>
</svg>
