<svg width="20" height="18" viewBox="0 0 20 18" fill="none" xmlns="http://www.w3.org/2000/svg">
<path d="M7.5 8.0625C7.5 7.91332 7.55926 7.77024 7.66475 7.66475C7.77024 7.55926 7.91332 7.5 8.0625 7.5H11.0625C11.2117 7.5 11.3548 7.55926 11.4602 7.66475C11.5657 7.77024 11.625 7.91332 11.625 8.0625C11.625 8.21168 11.5657 8.35476 11.4602 8.46025C11.3548 8.56574 11.2117 8.625 11.0625 8.625H8.0625C7.91332 8.625 7.77024 8.56574 7.66475 8.46025C7.55926 8.35476 7.5 8.21168 7.5 8.0625ZM19.125 4.3125V16.3125C19.125 16.6606 18.9867 16.9944 18.7406 17.2406C18.4944 17.4867 18.1606 17.625 17.8125 17.625H1.3125C0.964403 17.625 0.630564 17.4867 0.384422 17.2406C0.138281 16.9944 0 16.6606 0 16.3125V4.3125C0 3.9644 0.138281 3.63056 0.384422 3.38442C0.630564 3.13828 0.964403 3 1.3125 3H5.25V2.0625C5.25 1.51549 5.4673 0.990886 5.85409 0.604092C6.24089 0.217298 6.76549 0 7.3125 0H11.8125C12.3595 0 12.8841 0.217298 13.2709 0.604092C13.6577 0.990886 13.875 1.51549 13.875 2.0625V3H17.8125C18.1606 3 18.4944 3.13828 18.7406 3.38442C18.9867 3.63056 19.125 3.9644 19.125 4.3125ZM6.375 3H12.75V2.0625C12.75 1.81386 12.6512 1.5754 12.4754 1.39959C12.2996 1.22377 12.0611 1.125 11.8125 1.125H7.3125C7.06386 1.125 6.8254 1.22377 6.64959 1.39959C6.47377 1.5754 6.375 1.81386 6.375 2.0625V3ZM1.125 4.3125V8.32406C3.70804 9.75172 6.61118 10.5004 9.5625 10.5C12.514 10.5005 15.4172 9.75145 18 8.32312V4.3125C18 4.26277 17.9802 4.21508 17.9451 4.17992C17.9099 4.14475 17.8622 4.125 17.8125 4.125H1.3125C1.26277 4.125 1.21508 4.14475 1.17992 4.17992C1.14475 4.21508 1.125 4.26277 1.125 4.3125ZM18 16.3125V9.59719C15.3871 10.9299 12.4957 11.6248 9.5625 11.625C6.62938 11.6253 3.73792 10.9307 1.125 9.59813V16.3125C1.125 16.3622 1.14475 16.4099 1.17992 16.4451C1.21508 16.4802 1.26277 16.5 1.3125 16.5H17.8125C17.8622 16.5 17.9099 16.4802 17.9451 16.4451C17.9802 16.4099 18 16.3622 18 16.3125Z" fill="black"/>
</svg>
