<svg width="20" height="20" viewBox="0 0 20 20" fill="none" xmlns="http://www.w3.org/2000/svg">
<path d="M6.43726 10.8784C6.25184 10.8784 6.07058 10.8234 5.91641 10.7204C5.76224 10.6174 5.64208 10.471 5.57112 10.2997C5.50017 10.1284 5.4816 9.93988 5.51777 9.75802C5.55395 9.57616 5.64324 9.40912 5.77435 9.27801C5.90546 9.14689 6.07251 9.05761 6.25436 9.02143C6.43622 8.98526 6.62472 9.00382 6.79603 9.07478C6.96733 9.14574 7.11375 9.2659 7.21676 9.42007C7.31978 9.57424 7.37476 9.7555 7.37476 9.94092C7.37476 10.1896 7.27599 10.428 7.10017 10.6038C6.92436 10.7796 6.6859 10.8784 6.43726 10.8784ZM13.1873 9.00342C13.0018 9.00342 12.8206 9.0584 12.6664 9.16142C12.5122 9.26443 12.3921 9.41085 12.3211 9.58215C12.2502 9.75346 12.2316 9.94196 12.2678 10.1238C12.3039 10.3057 12.3932 10.4727 12.5243 10.6038C12.6555 10.7349 12.8225 10.8242 13.0044 10.8604C13.1862 10.8966 13.3747 10.878 13.546 10.8071C13.7173 10.7361 13.8637 10.6159 13.9668 10.4618C14.0698 10.3076 14.1248 10.1263 14.1248 9.94092C14.1248 9.69228 14.026 9.45382 13.8502 9.27801C13.6744 9.10219 13.4359 9.00342 13.1873 9.00342ZM12.1373 13.2147C11.4393 13.6482 10.634 13.878 9.81226 13.878C8.99057 13.878 8.18525 13.6482 7.48726 13.2147C7.36095 13.1351 7.20821 13.109 7.06263 13.142C6.91706 13.1751 6.79057 13.2646 6.71101 13.3909C6.63145 13.5172 6.60532 13.67 6.63837 13.8155C6.67142 13.9611 6.76095 14.0876 6.88726 14.1672C7.76489 14.714 8.77822 15.0038 9.81226 15.0038C10.8463 15.0038 11.8596 14.714 12.7373 14.1672C12.7998 14.1278 12.854 14.0764 12.8967 14.0161C12.9394 13.9558 12.9698 13.8876 12.9862 13.8155C13.0025 13.7435 13.0045 13.6689 12.9921 13.596C12.9796 13.5231 12.9529 13.4535 12.9135 13.3909C12.8741 13.3284 12.8228 13.2742 12.7625 13.2315C12.7021 13.1888 12.634 13.1584 12.5619 13.142C12.4898 13.1257 12.4152 13.1237 12.3423 13.1361C12.2695 13.1486 12.1998 13.1753 12.1373 13.2147ZM19.3748 9.94092C19.3748 11.8322 18.8139 13.681 17.7632 15.2536C16.7124 16.8261 15.219 18.0518 13.4717 18.7755C11.7244 19.4993 9.80165 19.6886 7.94671 19.3197C6.09177 18.9507 4.38789 18.04 3.05055 16.7026C1.71321 15.3653 0.802472 13.6614 0.433501 11.8065C0.0645298 9.95153 0.253899 8.02883 0.977662 6.28151C1.70142 4.53419 2.92707 3.04073 4.49962 1.98999C6.07216 0.939249 7.92098 0.378418 9.81226 0.378418C12.3475 0.381395 14.778 1.38983 16.5707 3.1825C18.3634 4.97517 19.3718 7.4057 19.3748 9.94092ZM18.2498 9.94092C18.2471 7.75153 17.3946 5.64868 15.8718 4.07557C14.3491 2.50245 12.2751 1.58197 10.0869 1.50811C8.90288 3.11873 8.87476 4.67686 8.87476 4.69092C8.87476 4.93956 8.97353 5.17802 9.14935 5.35383C9.32516 5.52965 9.56362 5.62842 9.81226 5.62842C10.0609 5.62842 10.2994 5.52965 10.4752 5.35383C10.651 5.17802 10.7498 4.93956 10.7498 4.69092C10.7498 4.54173 10.809 4.39866 10.9145 4.29317C11.02 4.18768 11.1631 4.12842 11.3123 4.12842C11.4614 4.12842 11.6045 4.18768 11.71 4.29317C11.8155 4.39866 11.8748 4.54173 11.8748 4.69092C11.8748 5.23793 11.6575 5.76253 11.2707 6.14933C10.8839 6.53612 10.3593 6.75342 9.81226 6.75342C9.26525 6.75342 8.74065 6.53612 8.35385 6.14933C7.96706 5.76253 7.74976 5.23793 7.74976 4.69092C7.74976 4.62061 7.76382 3.20779 8.70039 1.57654C7.09322 1.79019 5.58164 2.46237 4.34651 3.51264C3.11137 4.5629 2.20499 5.94679 1.73579 7.49872C1.2666 9.05065 1.25448 10.7049 1.70087 12.2635C2.14726 13.8222 3.03326 15.2192 4.25286 16.2875C5.47247 17.3557 6.97403 18.05 8.57789 18.2872C10.1818 18.5244 11.82 18.2944 13.2966 17.6249C14.7732 16.9554 16.0256 15.8746 16.904 14.5119C17.7825 13.1492 18.2497 11.5622 18.2498 9.94092Z" fill="black"/>
</svg>
