<svg width="22" height="18" viewBox="0 0 22 18" fill="none" xmlns="http://www.w3.org/2000/svg">
<path d="M1.06226 14.625H20.5623C20.7114 14.625 20.8545 14.5657 20.96 14.4602C21.0655 14.3548 21.1248 14.2117 21.1248 14.0625C21.1248 13.9133 21.0655 13.7702 20.96 13.6648C20.8545 13.5593 20.7114 13.5 20.5623 13.5H19.6248V11.8125C19.6223 9.57344 18.7686 7.41908 17.2366 5.78615C15.7047 4.15321 13.6091 3.1639 11.3748 3.01875V1.125H13.0623C13.2114 1.125 13.3545 1.06574 13.46 0.960248C13.5655 0.854758 13.6248 0.711684 13.6248 0.5625C13.6248 0.413316 13.5655 0.270242 13.46 0.164752C13.3545 0.0592632 13.2114 0 13.0623 0H8.56226C8.41307 0 8.27 0.0592632 8.16451 0.164752C8.05902 0.270242 7.99976 0.413316 7.99976 0.5625C7.99976 0.711684 8.05902 0.854758 8.16451 0.960248C8.27 1.06574 8.41307 1.125 8.56226 1.125H10.2498V3.01875C8.01541 3.1639 5.91984 4.15321 4.38788 5.78615C2.85592 7.41908 2.00218 9.57344 1.99976 11.8125V13.5H1.06226C0.913072 13.5 0.769997 13.5593 0.664508 13.6648C0.559019 13.7702 0.499756 13.9133 0.499756 14.0625C0.499756 14.2117 0.559019 14.3548 0.664508 14.4602C0.769997 14.5657 0.913072 14.625 1.06226 14.625ZM3.12476 11.8125C3.12476 9.77365 3.93469 7.8183 5.37637 6.37662C6.81806 4.93493 8.7734 4.125 10.8123 4.125C12.8511 4.125 14.8065 4.93493 16.2481 6.37662C17.6898 7.8183 18.4998 9.77365 18.4998 11.8125V13.5H3.12476V11.8125ZM21.1248 17.0625C21.1248 17.2117 21.0655 17.3548 20.96 17.4602C20.8545 17.5657 20.7114 17.625 20.5623 17.625H1.06226C0.913072 17.625 0.769997 17.5657 0.664508 17.4602C0.559019 17.3548 0.499756 17.2117 0.499756 17.0625C0.499756 16.9133 0.559019 16.7702 0.664508 16.6648C0.769997 16.5593 0.913072 16.5 1.06226 16.5H20.5623C20.7114 16.5 20.8545 16.5593 20.96 16.6648C21.0655 16.7702 21.1248 16.9133 21.1248 17.0625Z" fill="black"/>
</svg>
