<svg width="20" height="21" viewBox="0 0 20 21" fill="none" xmlns="http://www.w3.org/2000/svg">
<path d="M9.24976 1.69189V0.941895C9.24976 0.79271 9.30902 0.649636 9.41451 0.544147C9.52 0.438658 9.66307 0.379395 9.81226 0.379395C9.96144 0.379395 10.1045 0.438658 10.21 0.544147C10.3155 0.649636 10.3748 0.79271 10.3748 0.941895V1.69189C10.3748 1.84108 10.3155 1.98415 10.21 2.08964C10.1045 2.19513 9.96144 2.25439 9.81226 2.25439C9.66307 2.25439 9.52 2.19513 9.41451 2.08964C9.30902 1.98415 9.24976 1.84108 9.24976 1.69189ZM16.5623 4.50439C16.7114 4.50426 16.8544 4.44491 16.9598 4.33939L17.7098 3.58939C17.765 3.5379 17.8093 3.4758 17.8401 3.4068C17.8708 3.3378 17.8874 3.26331 17.8887 3.18779C17.89 3.11226 17.8761 3.03724 17.8478 2.9672C17.8196 2.89716 17.7774 2.83353 17.724 2.78012C17.6706 2.7267 17.607 2.68459 17.537 2.6563C17.4669 2.62801 17.3919 2.61412 17.3164 2.61545C17.2408 2.61678 17.1664 2.63331 17.0974 2.66406C17.0284 2.6948 16.9663 2.73913 16.9148 2.79439L16.1648 3.54439C16.0862 3.62306 16.0327 3.72324 16.011 3.83229C15.9894 3.94134 16.0005 4.05436 16.043 4.15709C16.0856 4.25981 16.1576 4.34762 16.25 4.40944C16.3424 4.47125 16.4511 4.5043 16.5623 4.50439ZM2.66476 4.33939C2.77139 4.43875 2.91242 4.49285 3.05815 4.49028C3.20387 4.4877 3.34291 4.42867 3.44597 4.32561C3.54903 4.22255 3.60807 4.08351 3.61064 3.93779C3.61321 3.79206 3.55912 3.65103 3.45976 3.54439L2.70976 2.79439C2.60312 2.69503 2.46209 2.64094 2.31636 2.64351C2.17064 2.64608 2.0316 2.70512 1.92854 2.80818C1.82548 2.91124 1.76645 3.05028 1.76387 3.196C1.7613 3.34173 1.8154 3.48276 1.91476 3.58939L2.66476 4.33939ZM10.656 7.13689C10.5831 7.12458 10.5085 7.12675 10.4365 7.14326C10.3644 7.15978 10.2963 7.19033 10.2361 7.23316C10.1144 7.31966 10.0321 7.45095 10.0073 7.59814C9.98239 7.74534 10.017 7.89638 10.1035 8.01805C10.19 8.13971 10.3213 8.22203 10.4685 8.24689C12.3435 8.56002 13.7498 10.2569 13.7498 12.1919C13.7498 12.3411 13.809 12.4842 13.9145 12.5896C14.02 12.6951 14.1631 12.7544 14.3123 12.7544C14.4614 12.7544 14.6045 12.6951 14.71 12.5896C14.8155 12.4842 14.8748 12.3411 14.8748 12.1919C14.8748 9.71408 13.0607 7.54096 10.656 7.13689ZM19.3748 16.6919V18.9419C19.3748 19.29 19.2365 19.6238 18.9903 19.87C18.7442 20.1161 18.4104 20.2544 18.0623 20.2544H1.56226C1.21416 20.2544 0.88032 20.1161 0.634178 19.87C0.388037 19.6238 0.249756 19.29 0.249756 18.9419V16.6919C0.249756 16.3438 0.388037 16.01 0.634178 15.7638C0.88032 15.5177 1.21416 15.3794 1.56226 15.3794H1.74976V12.1919C1.74976 10.0536 2.5992 8.00286 4.11121 6.49085C5.62322 4.97883 7.67395 4.12939 9.81226 4.12939H9.87319C14.2851 4.16221 17.8748 7.82127 17.8748 12.2856V15.3794H18.0623C18.4104 15.3794 18.7442 15.5177 18.9903 15.7638C19.2365 16.01 19.3748 16.3438 19.3748 16.6919ZM2.87476 15.3794H16.7498V12.2856C16.7498 8.44189 13.6616 5.28252 9.86476 5.25439H9.81226C7.97232 5.25439 6.20774 5.98531 4.9067 7.28634C3.60567 8.58737 2.87476 10.352 2.87476 12.1919V15.3794ZM18.2498 16.6919C18.2498 16.6422 18.23 16.5945 18.1948 16.5593C18.1597 16.5241 18.112 16.5044 18.0623 16.5044H1.56226C1.51253 16.5044 1.46484 16.5241 1.42967 16.5593C1.39451 16.5945 1.37476 16.6422 1.37476 16.6919V18.9419C1.37476 18.9916 1.39451 19.0393 1.42967 19.0745C1.46484 19.1096 1.51253 19.1294 1.56226 19.1294H18.0623C18.112 19.1294 18.1597 19.1096 18.1948 19.0745C18.23 19.0393 18.2498 18.9916 18.2498 18.9419V16.6919Z" fill="black"/>
</svg>
