<svg width="20" height="20" viewBox="0 0 20 20" fill="none" xmlns="http://www.w3.org/2000/svg">
<path d="M19.2005 5.78365C19.1296 5.71592 19.0422 5.66791 18.9469 5.6444C18.8517 5.62088 18.752 5.62267 18.6577 5.64959L18.5255 5.68708C18.4032 5.15305 18.1708 4.65042 17.8432 4.21132C17.5156 3.77222 17.0999 3.40633 16.6228 3.13703C16.1457 2.86773 15.6177 2.70096 15.0725 2.64737C14.5272 2.59379 13.9768 2.65457 13.4564 2.82584C13.1604 2.1025 12.6557 1.48365 12.0068 1.04807C11.3579 0.612483 10.594 0.379883 9.81238 0.379883C9.0308 0.379883 8.26691 0.612483 7.61796 1.04807C6.96902 1.48365 6.46438 2.1025 6.16832 2.82584C5.64792 2.65457 5.09751 2.59379 4.55229 2.64737C4.00706 2.70096 3.47902 2.86773 3.00192 3.13703C2.52482 3.40633 2.10917 3.77222 1.78155 4.21132C1.45393 4.65042 1.22154 5.15305 1.09926 5.68708L0.967069 5.64959C0.872804 5.62265 0.773135 5.62081 0.677943 5.64426C0.582751 5.66771 0.495341 5.71564 0.424379 5.78329C0.353417 5.85093 0.301368 5.93595 0.27339 6.02991C0.245413 6.12387 0.24248 6.22352 0.264881 6.31896L3.12894 18.4915C3.19677 18.7794 3.35988 19.036 3.59182 19.2196C3.82377 19.4032 4.11093 19.5031 4.40676 19.503H15.218C15.5138 19.5031 15.801 19.4032 16.0329 19.2196C16.2649 19.036 16.428 18.7794 16.4958 18.4915L19.3599 6.31896C19.3822 6.22358 19.3793 6.12402 19.3513 6.03012C19.3234 5.93623 19.2714 5.85127 19.2005 5.78365ZM4.93738 3.75302C5.3952 3.75192 5.84615 3.86434 6.24988 4.08021C6.32645 4.12101 6.41143 4.14354 6.49816 4.14605C6.58488 4.14855 6.67102 4.13096 6.74982 4.09465C6.82862 4.05834 6.89795 4.00429 6.95239 3.93673C7.00683 3.86917 7.0449 3.78993 7.06363 3.70521C7.2029 3.08106 7.55071 2.523 8.04972 2.12306C8.54873 1.72313 9.16913 1.50519 9.80863 1.50519C10.4481 1.50519 11.0685 1.72313 11.5675 2.12306C12.0666 2.523 12.4144 3.08106 12.5536 3.70521C12.5724 3.7898 12.6105 3.8689 12.6648 3.93636C12.7192 4.00382 12.7884 4.0578 12.8671 4.0941C12.9458 4.1304 13.0318 4.14803 13.1184 4.14562C13.205 4.14321 13.2899 4.12083 13.3664 4.08021C13.7728 3.8632 14.2267 3.75076 14.6874 3.75302C15.3348 3.75284 15.9625 3.97602 16.4644 4.38491C16.9664 4.79379 17.3119 5.36333 17.4427 5.9974L13.5924 7.09708L10.2999 5.78458C9.98694 5.65939 9.63783 5.65939 9.32488 5.78458L6.03238 7.09708L2.18207 5.9974C2.31285 5.36333 2.65838 4.79379 3.16034 4.38491C3.6623 3.97602 4.28996 3.75284 4.93738 3.75302ZM12.9474 8.05052L11.5702 18.378H8.05457L6.67738 8.05052L9.74301 6.82427C9.78755 6.80653 9.83721 6.80653 9.88176 6.82427L12.9474 8.05052ZM4.22863 18.2336L1.57926 6.9949L5.55332 8.13021L6.92019 18.378H4.40676C4.36447 18.3781 4.3234 18.3639 4.29021 18.3377C4.25702 18.3115 4.23367 18.2748 4.22394 18.2336H4.22863ZM15.4055 18.2336C15.3956 18.2756 15.3716 18.3129 15.3374 18.3392C15.3033 18.3654 15.2611 18.3792 15.218 18.378H12.7046L14.0714 8.13021L18.0455 6.9949L15.4055 18.2336Z" fill="black"/>
</svg>
