<svg width="21" height="21" viewBox="0 0 21 21" fill="none" xmlns="http://www.w3.org/2000/svg">
<path d="M8.01149 4.75342C7.8576 4.59953 7.66737 4.48695 7.45842 4.4261C7.24947 4.36525 7.02854 4.35809 6.81608 4.40529C6.60363 4.45249 6.40652 4.55253 6.24299 4.69613C6.07946 4.83974 5.9548 5.02228 5.88055 5.22686L0.958678 18.7662C0.887959 18.9613 0.865125 19.1705 0.892097 19.3762C0.919068 19.582 0.995057 19.7782 1.11367 19.9485C1.23228 20.1187 1.39005 20.258 1.5737 20.3545C1.75735 20.4511 1.9615 20.5022 2.16899 20.5034C2.32155 20.503 2.47288 20.4761 2.61618 20.4237L16.1518 15.5019C16.356 15.4271 16.5381 15.302 16.6812 15.1383C16.8243 14.9745 16.9238 14.7773 16.9705 14.5649C17.0172 14.3525 17.0097 14.1318 16.9485 13.9231C16.8873 13.7144 16.7745 13.5245 16.6206 13.3709L8.01149 4.75342ZM2.2318 19.3662C2.2017 19.3774 2.16904 19.3796 2.13768 19.3728C2.10632 19.3659 2.07759 19.3502 2.0549 19.3275C2.0322 19.3048 2.01649 19.2761 2.00963 19.2447C2.00276 19.2134 2.00504 19.1807 2.01618 19.1506L3.4393 15.2347L6.14774 17.9422L2.2318 19.3662ZM7.31399 17.5184L3.86399 14.0675L5.2393 10.2847L11.0977 16.1431L7.31399 17.5184ZM15.879 14.3225C15.8733 14.3503 15.8605 14.3763 15.8418 14.3976C15.823 14.419 15.799 14.4351 15.7721 14.4444L12.264 15.7222L5.66024 9.11748L6.93805 5.61498C6.94712 5.58799 6.96318 5.56389 6.98459 5.54512C7.00599 5.52634 7.03199 5.51357 7.05993 5.50811C7.07269 5.50644 7.08561 5.50644 7.09837 5.50811C7.12025 5.508 7.14192 5.51235 7.16207 5.5209C7.18222 5.52944 7.20041 5.54199 7.21555 5.55779L15.8293 14.1715C15.8498 14.1903 15.8652 14.2141 15.8739 14.2405C15.8826 14.2669 15.8844 14.2952 15.879 14.3225ZM12.879 6.44092C12.8923 5.96306 13.0084 5.49367 13.2193 5.06467C13.6824 4.13842 14.5599 3.62842 15.6915 3.62842C16.3918 3.62842 16.8662 3.37154 17.1427 2.84279C17.2831 2.56178 17.3636 2.25466 17.379 1.94092C17.379 1.79173 17.4383 1.64866 17.5437 1.54317C17.6492 1.43768 17.7923 1.37842 17.9415 1.37842C18.0907 1.37842 18.2337 1.43768 18.3392 1.54317C18.4447 1.64866 18.504 1.79173 18.504 1.94092C18.504 2.91404 17.9162 4.75342 15.6915 4.75342C14.9912 4.75342 14.5168 5.01029 14.2402 5.53904C14.0994 5.81988 14.0189 6.1271 14.004 6.44092C14.004 6.5901 13.9447 6.73318 13.8392 6.83867C13.7337 6.94415 13.5907 7.00342 13.4415 7.00342C13.2923 7.00342 13.1492 6.94415 13.0437 6.83867C12.9383 6.73318 12.879 6.5901 12.879 6.44092ZM10.629 3.44092V1.19092C10.629 1.04173 10.6883 0.89866 10.7937 0.79317C10.8992 0.687681 11.0423 0.628418 11.1915 0.628418C11.3407 0.628418 11.4837 0.687681 11.5892 0.79317C11.6947 0.89866 11.754 1.04173 11.754 1.19092V3.44092C11.754 3.5901 11.6947 3.73318 11.5892 3.83867C11.4837 3.94415 11.3407 4.00342 11.1915 4.00342C11.0423 4.00342 10.8992 3.94415 10.7937 3.83867C10.6883 3.73318 10.629 3.5901 10.629 3.44092ZM19.839 11.2934C19.8943 11.3449 19.9386 11.407 19.9693 11.476C20.0001 11.545 20.0166 11.6195 20.0179 11.695C20.0193 11.7706 20.0054 11.8456 19.9771 11.9156C19.9488 11.9857 19.9067 12.0493 19.8533 12.1027C19.7999 12.1561 19.7362 12.1982 19.6662 12.2265C19.5961 12.2548 19.5211 12.2687 19.4456 12.2674C19.3701 12.266 19.2956 12.2495 19.2266 12.2188C19.1576 12.188 19.0955 12.1437 19.044 12.0884L17.544 10.5884C17.4446 10.4818 17.3905 10.3408 17.3931 10.195C17.3957 10.0493 17.4547 9.91026 17.5578 9.8072C17.6608 9.70414 17.7999 9.64511 17.9456 9.64254C18.0913 9.63997 18.2324 9.69406 18.339 9.79342L19.839 11.2934ZM20.3696 6.97436L18.1196 7.72436C18.0491 7.74944 17.9744 7.76021 17.8997 7.75605C17.825 7.75188 17.7519 7.73287 17.6847 7.70011C17.6174 7.66735 17.5574 7.62152 17.5081 7.56528C17.4588 7.50904 17.4212 7.44353 17.3975 7.37258C17.3738 7.30163 17.3645 7.22667 17.3701 7.15208C17.3757 7.0775 17.3962 7.00478 17.4303 6.93819C17.4643 6.87161 17.5113 6.81248 17.5685 6.76428C17.6257 6.71608 17.692 6.67977 17.7634 6.65748L20.0134 5.90748C20.1539 5.86359 20.3061 5.87658 20.4372 5.94366C20.5683 6.01075 20.6679 6.12657 20.7145 6.26626C20.7612 6.40595 20.7512 6.55836 20.6867 6.69075C20.6222 6.82315 20.5084 6.92498 20.3696 6.97436Z" fill="black"/>
</svg>
