<svg width="22" height="22" viewBox="0 0 22 22" fill="none" xmlns="http://www.w3.org/2000/svg">
<path d="M20.7405 16.0752L17.3102 12.644L13.8789 1.31711C13.7865 1.01269 13.6172 0.73723 13.3874 0.517275C13.1575 0.297321 12.8749 0.140296 12.5667 0.0613441C12.2586 -0.0176081 11.9352 -0.0158245 11.6279 0.0665228C11.3207 0.14887 11.0398 0.309003 10.8124 0.53148C10.585 0.309003 10.3041 0.14887 9.99679 0.0665228C9.68951 -0.0158245 9.36619 -0.0176081 9.05801 0.0613441C8.74983 0.140296 8.46719 0.297321 8.23735 0.517275C8.00751 0.73723 7.83822 1.01269 7.74581 1.31711L4.31456 12.644L0.884245 16.0752C0.638361 16.3213 0.500244 16.655 0.500244 17.0029C0.500244 17.3508 0.638361 17.6844 0.884245 17.9305L3.94893 20.9952C4.19504 21.2411 4.5287 21.3792 4.87659 21.3792C5.22448 21.3792 5.55814 21.2411 5.80424 20.9952L10.3314 16.469C10.5128 16.2875 10.6741 16.087 10.8124 15.8709C10.9507 16.087 11.1119 16.2875 11.2933 16.469L15.8205 20.9952C16.0666 21.2411 16.4003 21.3792 16.7482 21.3792C17.096 21.3792 17.4297 21.2411 17.6758 20.9952L20.7405 17.9305C20.9864 17.6844 21.1245 17.3508 21.1245 17.0029C21.1245 16.655 20.9864 16.3213 20.7405 16.0752ZM5.00924 20.2002C4.99183 20.2177 4.97115 20.2315 4.94839 20.2409C4.92563 20.2504 4.90123 20.2552 4.87659 20.2552C4.85195 20.2552 4.82755 20.2504 4.80479 20.2409C4.78203 20.2315 4.76135 20.2177 4.74393 20.2002L1.67925 17.1355C1.66181 17.1181 1.64798 17.0975 1.63855 17.0747C1.62911 17.0519 1.62425 17.0275 1.62425 17.0029C1.62425 16.9782 1.62911 16.9538 1.63855 16.9311C1.64798 16.9083 1.66181 16.8876 1.67925 16.8702L3.00206 15.5484L6.33112 18.8774L5.00924 20.2002ZM9.53549 15.673L7.12706 18.0824L3.79706 14.7524L5.20987 13.3396C5.2753 13.2742 5.3236 13.1937 5.35049 13.1052L8.81924 1.6471C8.86782 1.47698 8.97658 1.33031 9.12527 1.23442C9.27395 1.13853 9.45243 1.09995 9.62744 1.12587C9.80246 1.15179 9.96209 1.24044 10.0766 1.37531C10.1911 1.51018 10.2527 1.68208 10.2499 1.85898V13.9527C10.2503 14.2724 10.1873 14.5891 10.0647 14.8843C9.9421 15.1796 9.76224 15.4477 9.53549 15.673ZM11.3749 13.9499V1.85617C11.3752 1.68153 11.4382 1.5128 11.5524 1.38066C11.6666 1.24852 11.8244 1.16174 11.9971 1.13609C12.1699 1.11044 12.3461 1.14762 12.4937 1.24088C12.6414 1.33414 12.7507 1.47728 12.8017 1.64429L16.2705 13.1024C16.2974 13.1909 16.3457 13.2714 16.4111 13.3368L17.9046 14.8312L14.5033 18.088L12.0855 15.6702C11.8594 15.4445 11.6803 15.1763 11.5583 14.8811C11.4363 14.5858 11.374 14.2694 11.3749 13.9499ZM19.9455 17.1374L16.8808 20.2021C16.8634 20.2195 16.8427 20.2334 16.82 20.2428C16.7972 20.2522 16.7728 20.2571 16.7482 20.2571C16.7235 20.2571 16.6991 20.2522 16.6763 20.2428C16.6536 20.2334 16.6329 20.2195 16.6155 20.2021L15.303 18.8896L18.7052 15.6327L19.9464 16.873C19.9807 16.9082 19.9997 16.9554 19.9996 17.0045C19.9994 17.0536 19.98 17.1006 19.9455 17.1355V17.1374Z" fill="black"/>
</svg>
