<svg width="17" height="22" viewBox="0 0 17 22" fill="none" xmlns="http://www.w3.org/2000/svg">
<path d="M16.3123 6.50342C16.4614 6.50342 16.6045 6.44415 16.71 6.33867C16.8155 6.23318 16.8748 6.0901 16.8748 5.94092C16.8733 4.59872 16.3394 3.31191 15.3903 2.36283C14.4413 1.41375 13.1545 0.879907 11.8123 0.878418H5.06226C4.71416 0.878418 4.38032 1.0167 4.13418 1.26284C3.88804 1.50898 3.74976 1.84282 3.74976 2.19092V6.69092C3.74976 7.01102 3.68671 7.32798 3.56421 7.62371C3.44172 7.91944 3.26217 8.18815 3.03583 8.41449C2.80949 8.64083 2.54078 8.82038 2.24505 8.94287C1.94932 9.06537 1.63235 9.12842 1.31226 9.12842C1.16307 9.12842 1.02 9.18768 0.914508 9.29317C0.809019 9.39866 0.749756 9.54173 0.749756 9.69092C0.749756 9.8401 0.809019 9.98318 0.914508 10.0887C1.02 10.1942 1.16307 10.2534 1.31226 10.2534C2.25709 10.2534 3.16323 9.87808 3.83132 9.20999C4.49942 8.54189 4.87476 7.63575 4.87476 6.69092V6.50342H8.24976V8.99904C8.25058 9.36472 8.1687 9.72585 8.01025 10.0554C7.8518 10.385 7.62088 10.6745 7.33476 10.9022L5.83476 12.1012C5.41699 12.4343 5.07992 12.8575 4.84874 13.3391C4.61757 13.8208 4.49826 14.3485 4.49976 14.8828V20.1909C4.49976 20.539 4.63804 20.8729 4.88418 21.119C5.13032 21.3651 5.46416 21.5034 5.81226 21.5034H15.5623C15.9104 21.5034 16.2442 21.3651 16.4903 21.119C16.7365 20.8729 16.8748 20.539 16.8748 20.1909V19.0162C16.8756 14.6273 15.7307 10.3141 13.5532 6.50342H16.3123ZM4.87476 2.19092C4.87476 2.14119 4.89451 2.0935 4.92967 2.05834C4.96484 2.02317 5.01253 2.00342 5.06226 2.00342H11.8123C12.7588 2.00457 13.6733 2.34616 14.3888 2.96579C15.1043 3.58543 15.5731 4.44177 15.7094 5.37842H4.87476V2.19092ZM15.7498 19.0162V20.1909C15.7498 20.2406 15.73 20.2883 15.6948 20.3235C15.6597 20.3587 15.612 20.3784 15.5623 20.3784H5.81226C5.76253 20.3784 5.71484 20.3587 5.67967 20.3235C5.64451 20.2883 5.62476 20.2406 5.62476 20.1909V14.8828C5.62393 14.5171 5.70581 14.156 5.86426 13.8264C6.02271 13.4969 6.25364 13.2074 6.53976 12.9797L8.03976 11.7806C8.45752 11.4475 8.79459 11.0244 9.02577 10.5427C9.25694 10.061 9.37625 9.53332 9.37476 8.99904V6.50342H12.2473C14.5394 10.2746 15.751 14.6031 15.7498 19.0162Z" fill="black"/>
</svg>
