<svg width="16" height="23" viewBox="0 0 16 23" fill="none" xmlns="http://www.w3.org/2000/svg">
<path d="M5.37476 8.06543V17.0654C5.37476 17.2146 5.31549 17.3577 5.21 17.4632C5.10451 17.5687 4.96144 17.6279 4.81226 17.6279C4.66307 17.6279 4.52 17.5687 4.41451 17.4632C4.30902 17.3577 4.24976 17.2146 4.24976 17.0654V8.06543C4.24976 7.91625 4.30902 7.77317 4.41451 7.66768C4.52 7.56219 4.66307 7.50293 4.81226 7.50293C4.96144 7.50293 5.10451 7.56219 5.21 7.66768C5.31549 7.77317 5.37476 7.91625 5.37476 8.06543ZM7.81226 7.50293C7.66307 7.50293 7.52 7.56219 7.41451 7.66768C7.30902 7.77317 7.24976 7.91625 7.24976 8.06543V17.0654C7.24976 17.2146 7.30902 17.3577 7.41451 17.4632C7.52 17.5687 7.66307 17.6279 7.81226 17.6279C7.96144 17.6279 8.10451 17.5687 8.21 17.4632C8.31549 17.3577 8.37476 17.2146 8.37476 17.0654V8.06543C8.37476 7.91625 8.31549 7.77317 8.21 7.66768C8.10451 7.56219 7.96144 7.50293 7.81226 7.50293ZM10.8123 7.50293C10.6631 7.50293 10.52 7.56219 10.4145 7.66768C10.309 7.77317 10.2498 7.91625 10.2498 8.06543V17.0654C10.2498 17.2146 10.309 17.3577 10.4145 17.4632C10.52 17.5687 10.6631 17.6279 10.8123 17.6279C10.9614 17.6279 11.1045 17.5687 11.21 17.4632C11.3155 17.3577 11.3748 17.2146 11.3748 17.0654V8.06543C11.3748 7.91625 11.3155 7.77317 11.21 7.66768C11.1045 7.56219 10.9614 7.50293 10.8123 7.50293ZM15.1248 5.81543V19.3154C15.1248 19.6635 14.9865 19.9974 14.7403 20.2435C14.4942 20.4896 14.1604 20.6279 13.8123 20.6279H12.1248V22.3154C12.1248 22.4646 12.0655 22.6077 11.96 22.7132C11.8545 22.8187 11.7114 22.8779 11.5623 22.8779C11.4131 22.8779 11.27 22.8187 11.1645 22.7132C11.059 22.6077 10.9998 22.4646 10.9998 22.3154V20.6279H4.62476V22.3154C4.62476 22.4646 4.56549 22.6077 4.46 22.7132C4.35451 22.8187 4.21144 22.8779 4.06226 22.8779C3.91307 22.8779 3.77 22.8187 3.66451 22.7132C3.55902 22.6077 3.49976 22.4646 3.49976 22.3154V20.6279H1.81226C1.46416 20.6279 1.13032 20.4896 0.884178 20.2435C0.638037 19.9974 0.499756 19.6635 0.499756 19.3154V5.81543C0.499756 5.46733 0.638037 5.13349 0.884178 4.88735C1.13032 4.64121 1.46416 4.50293 1.81226 4.50293H4.24976V2.06543C4.24976 1.51842 4.46705 0.993816 4.85385 0.607022C5.24064 0.220228 5.76525 0.00292969 6.31226 0.00292969H9.31226C9.85926 0.00292969 10.3839 0.220228 10.7707 0.607022C11.1575 0.993816 11.3748 1.51842 11.3748 2.06543V4.50293H13.8123C14.1604 4.50293 14.4942 4.64121 14.7403 4.88735C14.9865 5.13349 15.1248 5.46733 15.1248 5.81543ZM5.37476 4.50293H10.2498V2.06543C10.2498 1.81679 10.151 1.57833 9.97517 1.40252C9.79935 1.2267 9.5609 1.12793 9.31226 1.12793H6.31226C6.06362 1.12793 5.82516 1.2267 5.64934 1.40252C5.47353 1.57833 5.37476 1.81679 5.37476 2.06543V4.50293ZM13.9998 5.81543C13.9998 5.7657 13.98 5.71801 13.9448 5.68285C13.9097 5.64768 13.862 5.62793 13.8123 5.62793H1.81226C1.76253 5.62793 1.71484 5.64768 1.67967 5.68285C1.64451 5.71801 1.62476 5.7657 1.62476 5.81543V19.3154C1.62476 19.3652 1.64451 19.4128 1.67967 19.448C1.71484 19.4832 1.76253 19.5029 1.81226 19.5029H13.8123C13.862 19.5029 13.9097 19.4832 13.9448 19.448C13.98 19.4128 13.9998 19.3652 13.9998 19.3154V5.81543Z" fill="black"/>
</svg>
