<svg width="20" height="17" viewBox="0 0 20 17" fill="none" xmlns="http://www.w3.org/2000/svg">
<path d="M17.8125 0H1.3125C0.964403 0 0.630564 0.138281 0.384422 0.384422C0.138281 0.630564 0 0.964403 0 1.3125V14.8125C0 15.1606 0.138281 15.4944 0.384422 15.7406C0.630564 15.9867 0.964403 16.125 1.3125 16.125H17.8125C18.1606 16.125 18.4944 15.9867 18.7406 15.7406C18.9867 15.4944 19.125 15.1606 19.125 14.8125V1.3125C19.125 0.964403 18.9867 0.630564 18.7406 0.384422C18.4944 0.138281 18.1606 0 17.8125 0ZM1.3125 1.125H17.8125C17.8622 1.125 17.9099 1.14475 17.9451 1.17992C17.9802 1.21508 18 1.26277 18 1.3125V4.5H1.125V1.3125C1.125 1.26277 1.14475 1.21508 1.17992 1.17992C1.21508 1.14475 1.26277 1.125 1.3125 1.125ZM17.8125 15H1.3125C1.26277 15 1.21508 14.9802 1.17992 14.9451C1.14475 14.9099 1.125 14.8622 1.125 14.8125V5.625H18V14.8125C18 14.8622 17.9802 14.9099 17.9451 14.9451C17.9099 14.9802 17.8622 15 17.8125 15Z" fill="black"/>
</svg>
