<svg width="16" height="23" viewBox="0 0 16 23" fill="none" xmlns="http://www.w3.org/2000/svg">
<path d="M6.89695 0.503434H2.71477C2.59695 0.504504 2.48245 0.542542 2.38741 0.61218C2.29237 0.681819 2.2216 0.779541 2.18508 0.891559C2.04727 1.31437 -1.14586 11.2725 1.63664 15.1012C2.26945 15.9712 3.14602 16.4719 4.24852 16.5966V21.5034H2.56008C2.4109 21.5034 2.26782 21.5627 2.16233 21.6682C2.05684 21.7737 1.99758 21.9167 1.99758 22.0659C1.99758 22.2151 2.05684 22.3582 2.16233 22.4637C2.26782 22.5692 2.4109 22.6284 2.56008 22.6284H7.06008C7.20926 22.6284 7.35234 22.5692 7.45783 22.4637C7.56332 22.3582 7.62258 22.2151 7.62258 22.0659C7.62258 21.9167 7.56332 21.7737 7.45783 21.6682C7.35234 21.5627 7.20926 21.5034 7.06008 21.5034H5.37258V16.5966C6.47508 16.4719 7.35164 15.9712 7.98352 15.1012C10.766 11.2725 7.57383 1.31437 7.43602 0.891559C7.399 0.77802 7.32681 0.679208 7.22989 0.60943C7.13298 0.539652 7.01637 0.502528 6.89695 0.503434ZM3.13008 1.62843H6.48164C6.69164 2.32968 7.13789 3.90562 7.48945 5.75343H2.1232C2.47477 3.90562 2.92102 2.32968 3.13008 1.62843ZM7.06758 14.4403C6.54914 15.1556 5.80945 15.5034 4.81008 15.5034C3.8107 15.5034 3.06633 15.1556 2.54695 14.4403C1.57195 13.1053 1.36102 10.4925 1.92727 6.87843H7.68539C8.25164 10.4925 8.03977 13.1053 7.06945 14.4403H7.06758ZM15.1226 4.44093C15.1226 4.62635 15.0676 4.80761 14.9646 4.96178C14.8616 5.11595 14.7152 5.23611 14.5438 5.30707C14.3725 5.37803 14.184 5.39659 14.0022 5.36042C13.8203 5.32425 13.6533 5.23496 13.5222 5.10385C13.3911 4.97273 13.3018 4.80569 13.2656 4.62383C13.2294 4.44197 13.248 4.25347 13.3189 4.08217C13.3899 3.91086 13.5101 3.76444 13.6642 3.66143C13.8184 3.55842 13.9997 3.50343 14.1851 3.50343C14.4337 3.50343 14.6722 3.60221 14.848 3.77802C15.0238 3.95384 15.1226 4.19229 15.1226 4.44093ZM12.8726 1.44093C12.8726 1.62635 12.8176 1.80761 12.7146 1.96178C12.6116 2.11595 12.4651 2.23611 12.2938 2.30707C12.1225 2.37803 11.934 2.39659 11.7522 2.36042C11.5703 2.32425 11.4033 2.23496 11.2722 2.10385C11.1411 1.97274 11.0518 1.80569 11.0156 1.62383C10.9794 1.44197 10.998 1.25347 11.0689 1.08217C11.1399 0.910863 11.2601 0.764445 11.4142 0.661431C11.5684 0.558418 11.7497 0.503434 11.9351 0.503434C12.1837 0.503434 12.4222 0.602206 12.598 0.778022C12.7738 0.953837 12.8726 1.19229 12.8726 1.44093ZM12.8726 8.94093C12.8726 9.12635 12.8176 9.30761 12.7146 9.46178C12.6116 9.61595 12.4651 9.73611 12.2938 9.80707C12.1225 9.87803 11.934 9.89659 11.7522 9.86042C11.5703 9.82425 11.4033 9.73496 11.2722 9.60385C11.1411 9.47273 11.0518 9.30569 11.0156 9.12383C10.9794 8.94197 10.998 8.75347 11.0689 8.58217C11.1399 8.41086 11.2601 8.26445 11.4142 8.16143C11.5684 8.05842 11.7497 8.00343 11.9351 8.00343C12.1837 8.00343 12.4222 8.10221 12.598 8.27802C12.7738 8.45384 12.8726 8.69229 12.8726 8.94093Z" fill="black"/>
</svg>
