<svg width="22" height="19" viewBox="0 0 22 19" fill="none" xmlns="http://www.w3.org/2000/svg">
<path d="M18.6873 5.00342C18.2052 5.00342 17.7339 5.14638 17.3331 5.41421C16.9322 5.68205 16.6198 6.06273 16.4353 6.50813C16.2508 6.95352 16.2025 7.44362 16.2966 7.91645C16.3906 8.38928 16.6228 8.8236 16.9637 9.16449C17.3046 9.50538 17.7389 9.73753 18.2117 9.83158C18.6846 9.92563 19.1747 9.87736 19.62 9.69288C20.0654 9.50839 20.4461 9.19597 20.714 8.79512C20.9818 8.39428 21.1248 7.92301 21.1248 7.44092C21.1248 6.79445 20.868 6.17447 20.4108 5.71735C19.9537 5.26023 19.3337 5.00342 18.6873 5.00342ZM18.6873 8.75342C18.4277 8.75342 18.1739 8.67644 17.9581 8.53222C17.7422 8.388 17.574 8.18302 17.4747 7.94319C17.3753 7.70336 17.3493 7.43946 17.4 7.18486C17.4506 6.93026 17.5756 6.6964 17.7592 6.51284C17.9427 6.32928 18.1766 6.20428 18.4312 6.15364C18.6858 6.103 18.9497 6.12899 19.1895 6.22833C19.4294 6.32767 19.6343 6.49589 19.7786 6.71173C19.9228 6.92757 19.9998 7.18133 19.9998 7.44092C19.9998 7.78902 19.8615 8.12286 19.6153 8.369C19.3692 8.61514 19.0354 8.75342 18.6873 8.75342ZM5.37476 7.44092C5.37476 6.95883 5.2318 6.48756 4.96396 6.08672C4.69613 5.68587 4.31544 5.37345 3.87005 5.18896C3.42465 5.00447 2.93455 4.9562 2.46172 5.05025C1.9889 5.14431 1.55457 5.37646 1.21368 5.71735C0.872794 6.05824 0.640644 6.49256 0.546593 6.96539C0.452541 7.43821 0.500812 7.92831 0.685301 8.37371C0.869789 8.8191 1.18221 9.19979 1.58305 9.46763C1.9839 9.73546 2.45516 9.87842 2.93726 9.87842C3.58372 9.87842 4.20371 9.62161 4.66083 9.16449C5.11795 8.70737 5.37476 8.08738 5.37476 7.44092ZM2.93726 8.75342C2.67767 8.75342 2.42391 8.67644 2.20807 8.53222C1.99223 8.388 1.82401 8.18302 1.72467 7.94319C1.62533 7.70336 1.59933 7.43946 1.64998 7.18486C1.70062 6.93026 1.82562 6.6964 2.00918 6.51284C2.19274 6.32928 2.4266 6.20428 2.6812 6.15364C2.9358 6.103 3.1997 6.12899 3.43953 6.22833C3.67936 6.32767 3.88434 6.49589 4.02856 6.71173C4.17278 6.92757 4.24976 7.18133 4.24976 7.44092C4.24976 7.78902 4.11148 8.12286 3.86533 8.369C3.61919 8.61514 3.28535 8.75342 2.93726 8.75342ZM7.43726 5.37842C7.91935 5.37842 8.39061 5.23546 8.79146 4.96763C9.1923 4.69979 9.50472 4.3191 9.68921 3.87371C9.8737 3.42831 9.92197 2.93821 9.82792 2.46539C9.73387 1.99256 9.50172 1.55824 9.16083 1.21735C8.81994 0.876456 8.38562 0.644306 7.91279 0.550255C7.43996 0.456203 6.94986 0.504474 6.50447 0.688963C6.05907 0.873451 5.67839 1.18587 5.41055 1.58672C5.14271 1.98756 4.99976 2.45883 4.99976 2.94092C4.99976 3.58738 5.25656 4.20737 5.71368 4.66449C6.1708 5.12161 6.79079 5.37842 7.43726 5.37842ZM7.43726 1.62842C7.69685 1.62842 7.9506 1.7054 8.16644 1.84962C8.38228 1.99383 8.55051 2.19882 8.64985 2.43865C8.74919 2.67847 8.77518 2.94237 8.72454 3.19698C8.67389 3.45158 8.54889 3.68544 8.36534 3.869C8.18178 4.05255 7.94791 4.17756 7.69331 4.2282C7.43871 4.27884 7.17481 4.25285 6.93499 4.15351C6.69516 4.05417 6.49017 3.88594 6.34595 3.67011C6.20173 3.45427 6.12476 3.20051 6.12476 2.94092C6.12476 2.59282 6.26304 2.25898 6.50918 2.01284C6.75532 1.7667 7.08916 1.62842 7.43726 1.62842ZM14.1873 5.37842C14.6693 5.37842 15.1406 5.23546 15.5415 4.96763C15.9423 4.69979 16.2547 4.3191 16.4392 3.87371C16.6237 3.42831 16.672 2.93821 16.5779 2.46539C16.4839 1.99256 16.2517 1.55824 15.9108 1.21735C15.5699 0.876456 15.1356 0.644306 14.6628 0.550255C14.19 0.456203 13.6999 0.504474 13.2545 0.688963C12.8091 0.873451 12.4284 1.18587 12.1606 1.58672C11.8927 1.98756 11.7498 2.45883 11.7498 2.94092C11.7498 3.58738 12.0066 4.20737 12.4637 4.66449C12.9208 5.12161 13.5408 5.37842 14.1873 5.37842ZM14.1873 1.62842C14.4468 1.62842 14.7006 1.7054 14.9164 1.84962C15.1323 1.99383 15.3005 2.19882 15.3998 2.43865C15.4992 2.67847 15.5252 2.94237 15.4745 3.19698C15.4239 3.45158 15.2989 3.68544 15.1153 3.869C14.9318 4.05255 14.6979 4.17756 14.4433 4.2282C14.1887 4.27884 13.9248 4.25285 13.685 4.15351C13.4452 4.05417 13.2402 3.88594 13.096 3.67011C12.9517 3.45427 12.8748 3.20051 12.8748 2.94092C12.8748 2.59282 13.013 2.25898 13.2592 2.01284C13.5053 1.7667 13.8392 1.62842 14.1873 1.62842ZM16.2638 11.4356C15.8615 11.2135 15.5069 10.9143 15.2203 10.5551C14.9336 10.1959 14.7205 9.78373 14.5932 9.34217C14.3552 8.52354 13.8579 7.80426 13.1761 7.29246C12.4943 6.78065 11.6648 6.50395 10.8123 6.50395C9.95973 6.50395 9.13022 6.78065 8.44842 7.29246C7.76661 7.80426 7.26933 8.52354 7.03132 9.34217C6.77517 10.2324 6.17593 10.9844 5.36538 11.4328C4.66818 11.8101 4.11675 12.4092 3.79837 13.1352C3.47999 13.8612 3.41287 14.6726 3.60762 15.4411C3.80237 16.2096 4.24787 16.8911 4.87359 17.3778C5.49931 17.8646 6.26951 18.1287 7.06226 18.1284C7.53776 18.129 8.00846 18.0333 8.44601 17.8472C9.95955 17.2233 11.6584 17.2233 13.1719 17.8472C13.6116 18.034 14.0846 18.1297 14.5623 18.1284C15.3545 18.1286 16.1241 17.8647 16.7496 17.3785C17.375 16.8923 17.8205 16.2115 18.0157 15.4437C18.2109 14.6759 18.1446 13.865 17.8274 13.1391C17.5101 12.4132 16.9599 11.8138 16.2638 11.4356ZM14.5623 17.0034C14.2333 17.0039 13.9077 16.9375 13.6051 16.8084C11.8143 16.069 9.80363 16.069 8.01288 16.8084C7.43658 17.0486 6.7901 17.0584 6.20674 16.8359C5.62339 16.6135 5.14764 16.1756 4.87761 15.6127C4.60757 15.0498 4.56383 14.4047 4.75541 13.8105C4.94699 13.2163 5.35927 12.7182 5.90726 12.419C6.97928 11.8264 7.77207 10.8323 8.11132 9.65529C8.28117 9.07034 8.63634 8.55634 9.12342 8.19058C9.61049 7.82482 10.2031 7.62707 10.8123 7.62707C11.4214 7.62707 12.014 7.82482 12.5011 8.19058C12.9882 8.55634 13.3433 9.07034 13.5132 9.65529C13.6816 10.2389 13.9634 10.7836 14.3426 11.2582C14.7218 11.7328 15.1908 12.1279 15.7229 12.4209C16.2006 12.6787 16.5785 13.0886 16.7968 13.5856C17.0151 14.0826 17.0613 14.6382 16.928 15.1644C16.7948 15.6906 16.4897 16.1572 16.0611 16.4904C15.6326 16.8235 15.1051 17.0041 14.5623 17.0034Z" fill="black"/>
</svg>
