<svg width="17" height="21" viewBox="0 0 17 21" fill="none" xmlns="http://www.w3.org/2000/svg">
<path d="M8.0625 6.12842C8.61876 6.12842 9.16253 5.96347 9.62504 5.65443C10.0876 5.34539 10.448 4.90613 10.6609 4.39222C10.8738 3.8783 10.9295 3.3128 10.821 2.76723C10.7124 2.22166 10.4446 1.72052 10.0512 1.32718C9.6579 0.933846 9.15676 0.665982 8.61119 0.557461C8.06562 0.44894 7.50012 0.504637 6.9862 0.717508C6.47229 0.93038 6.03303 1.29086 5.72399 1.75338C5.41495 2.21589 5.25 2.75966 5.25 3.31592C5.25 4.06184 5.54632 4.77721 6.07376 5.30466C6.60121 5.8321 7.31658 6.12842 8.0625 6.12842ZM8.0625 1.62842C8.39626 1.62842 8.72252 1.72739 9.00002 1.91281C9.27753 2.09824 9.49382 2.36179 9.62155 2.67014C9.74927 2.97849 9.78269 3.31779 9.71757 3.64513C9.65246 3.97248 9.49174 4.27316 9.25574 4.50916C9.01974 4.74516 8.71906 4.90588 8.39172 4.97099C8.06437 5.03611 7.72507 5.00269 7.41672 4.87497C7.10837 4.74724 6.84482 4.53095 6.65939 4.25344C6.47397 3.97594 6.375 3.64968 6.375 3.31592C6.375 2.86837 6.55279 2.43914 6.86926 2.12268C7.18573 1.80621 7.61495 1.62842 8.0625 1.62842ZM0.75 7.06592C0.75 6.80633 0.826977 6.55257 0.971196 6.33673C1.11542 6.12089 1.3204 5.95267 1.56023 5.85333C1.80006 5.75399 2.06396 5.728 2.31856 5.77864C2.57316 5.82928 2.80702 5.95429 2.99058 6.13784C3.17413 6.3214 3.29914 6.55526 3.34978 6.80986C3.40042 7.06446 3.37443 7.32836 3.27509 7.56819C3.17575 7.80802 3.00753 8.013 2.79169 8.15722C2.57585 8.30144 2.32209 8.37842 2.0625 8.37842C1.7144 8.37842 1.38056 8.24014 1.13442 7.994C0.888281 7.74786 0.75 7.41402 0.75 7.06592ZM16.7512 8.31748C16.659 8.43423 16.5242 8.50964 16.3764 8.52721C16.2286 8.54478 16.0799 8.50308 15.9628 8.41123C15.8531 8.32498 13.6134 6.63842 10.1016 8.49936C10.0776 9.51744 9.97636 10.5322 9.79875 11.535L12.9225 14.1384C13.0095 14.2109 13.0725 14.3079 13.1035 14.4168C13.1344 14.5257 13.1318 14.6414 13.0959 14.7487L11.5959 19.2487C11.5466 19.3875 11.4447 19.5013 11.3123 19.5658C11.1799 19.6303 11.0275 19.6403 10.8878 19.5937C10.7482 19.547 10.6323 19.4475 10.5652 19.3163C10.4982 19.1852 10.4852 19.0331 10.5291 18.8925L11.9062 14.7534L9.51656 12.7612C9.3678 13.3059 9.1843 13.8404 8.96719 14.3615C7.70156 17.3784 5.4375 19.3922 2.22469 20.355C2.17202 20.3705 2.1174 20.3784 2.0625 20.3784C1.92733 20.3786 1.79664 20.33 1.69433 20.2417C1.59202 20.1534 1.52494 20.0311 1.50536 19.8974C1.48578 19.7637 1.51502 19.6273 1.58772 19.5134C1.66042 19.3994 1.77172 19.3155 1.90125 19.2769C7.97812 17.4534 8.78437 11.8931 8.94281 9.20717C6.28125 10.9706 4.2 11.3784 2.84906 11.3784C1.75125 11.3784 1.13437 11.1103 1.07906 11.085C1.01184 11.0542 0.951342 11.0105 0.901017 10.9563C0.850692 10.9022 0.811527 10.8386 0.785759 10.7693C0.759991 10.7 0.748124 10.6263 0.750835 10.5525C0.753547 10.4786 0.770784 10.406 0.801562 10.3387C0.832341 10.2715 0.876058 10.211 0.930218 10.1607C0.984378 10.1104 1.04792 10.0712 1.11722 10.0454C1.18651 10.0197 1.2602 10.0078 1.33409 10.0105C1.40797 10.0132 1.48059 10.0305 1.54781 10.0612C1.5675 10.0697 4.13531 11.1187 8.49844 8.15342C10.9772 6.46592 13.0453 6.37217 14.3447 6.59061C15.7856 6.83154 16.6313 7.49998 16.6659 7.52811C16.7817 7.62164 16.8556 7.75722 16.8716 7.90517C16.8876 8.05312 16.8443 8.20138 16.7512 8.31748Z" fill="black"/>
</svg>
