<svg width="24" height="20" viewBox="0 0 24 20" fill="none" xmlns="http://www.w3.org/2000/svg">
<path d="M23.0622 12.8785C22.913 12.8785 22.7699 12.9378 22.6644 13.0432C22.5589 13.1487 22.4997 13.2918 22.4997 13.441V15.1285H18.1225C18.0728 15.1283 18.0253 15.1084 17.9903 15.0732L16.1378 13.2216L20.9903 8.36912C21.1122 8.24724 21.2089 8.10254 21.2748 7.9433C21.3408 7.78405 21.3747 7.61336 21.3747 7.44099C21.3747 7.26862 21.3408 7.09794 21.2748 6.93869C21.2089 6.77944 21.1122 6.63475 20.9903 6.51287L15.7403 1.26287C15.6184 1.14084 15.4736 1.04403 15.3143 0.977978C15.155 0.911927 14.9842 0.87793 14.8117 0.87793C14.6392 0.87793 14.4684 0.911927 14.3091 0.977978C14.1497 1.04403 14.005 1.14084 13.8831 1.26287L0.219029 14.9738C0.114342 15.0787 0.0430985 15.2124 0.0142957 15.3578C-0.0145072 15.5032 0.000422064 15.6538 0.0571981 15.7908C0.113974 15.9277 0.210051 16.0447 0.333295 16.1271C0.45654 16.2094 0.601424 16.2534 0.749653 16.2535H4.5184L7.88403 19.6191C8.00591 19.741 8.1506 19.8377 8.30985 19.9037C8.4691 19.9696 8.63978 20.0036 8.81215 20.0036C8.98452 20.0036 9.15521 19.9696 9.31446 19.9037C9.4737 19.8377 9.6184 19.741 9.74028 19.6191L15.3428 14.0166L17.1943 15.8691C17.316 15.9912 17.4607 16.0881 17.62 16.154C17.7793 16.22 17.9501 16.2538 18.1225 16.2535H22.4997V17.941C22.4997 18.0902 22.5589 18.2333 22.6644 18.3387C22.7699 18.4442 22.913 18.5035 23.0622 18.5035C23.2113 18.5035 23.3544 18.4442 23.4599 18.3387C23.5654 18.2333 23.6247 18.0902 23.6247 17.941V13.441C23.6247 13.2918 23.5654 13.1487 23.4599 13.0432C23.3544 12.9378 23.2113 12.8785 23.0622 12.8785ZM14.68 2.05881C14.7151 2.02388 14.7626 2.00428 14.8122 2.00428C14.8617 2.00428 14.9092 2.02388 14.9443 2.05881L16.2662 3.38068L4.5184 15.1285H1.6534L14.68 2.05881ZM8.94434 18.8232C8.90921 18.8581 8.86169 18.8777 8.81215 18.8777C8.76262 18.8777 8.7151 18.8581 8.67997 18.8232L5.54684 15.691L17.0622 4.17568L20.1943 7.30881C20.2293 7.34394 20.2489 7.39146 20.2489 7.44099C20.2489 7.49053 20.2293 7.53805 20.1943 7.57318L8.94434 18.8232Z" fill="black"/>
</svg>
