<svg width="20" height="20" viewBox="0 0 20 20" fill="none" xmlns="http://www.w3.org/2000/svg">
<path d="M9.81226 0.503418C7.92098 0.503418 6.07216 1.06425 4.49962 2.11499C2.92707 3.16573 1.70142 4.65919 0.977662 6.40651C0.253899 8.15383 0.0645298 10.0765 0.433501 11.9315C0.802472 13.7864 1.71321 15.4903 3.05055 16.8276C4.38789 18.165 6.09177 19.0757 7.94671 19.4447C9.80165 19.8136 11.7244 19.6243 13.4717 18.9005C15.219 18.1768 16.7124 16.9511 17.7632 15.3786C18.8139 13.806 19.3748 11.9572 19.3748 10.0659C19.3718 7.5307 18.3634 5.10017 16.5707 3.3075C14.778 1.51483 12.3475 0.506395 9.81226 0.503418ZM18.2498 10.0659C18.2508 11.2228 18.0126 12.3673 17.5504 13.4278L13.1732 10.7362C13.0177 10.6384 12.8432 10.5746 12.6613 10.5487L10.5219 10.2609C10.2458 10.2252 9.96552 10.2777 9.72114 10.4111C9.47677 10.5445 9.28091 10.7519 9.16163 11.0034H8.23164C8.19639 11.0034 8.16187 10.9935 8.13202 10.9747C8.10218 10.956 8.07821 10.9292 8.06288 10.8975L7.70664 10.1606C7.62006 9.9807 7.49342 9.82303 7.33644 9.69968C7.17945 9.57633 6.99629 9.49059 6.80101 9.44904L5.79695 9.23342L6.66226 7.72217C6.67878 7.69355 6.70257 7.66981 6.73121 7.65335C6.75986 7.63689 6.79235 7.62829 6.82539 7.62842H8.39195C8.61372 7.62855 8.83185 7.57208 9.0257 7.46436L10.1741 6.83154C10.2622 6.78196 10.3446 6.72286 10.4198 6.65529L12.9426 4.37436C13.1638 4.17579 13.3107 3.90766 13.359 3.6143C13.4072 3.32093 13.3539 3.01989 13.2079 2.76092L12.906 2.21436C14.4808 2.83719 15.8321 3.91867 16.7849 5.31863C17.7377 6.71859 18.2481 8.37248 18.2498 10.0659ZM11.3685 1.77279L12.2263 3.30936C12.247 3.34647 12.2544 3.38949 12.2475 3.43139C12.2405 3.47329 12.2195 3.51158 12.1879 3.53998L9.66507 5.82092C9.65461 5.83077 9.64296 5.83927 9.63038 5.84623L8.48195 6.47998C8.45328 6.49585 8.42096 6.50393 8.3882 6.50342H6.82539C6.59474 6.50316 6.36811 6.56368 6.1683 6.67889C5.9685 6.7941 5.80258 6.95993 5.68726 7.15967L4.67289 8.93248C4.66587 8.92216 4.6599 8.91117 4.65507 8.89967L3.57789 6.02436C3.56014 5.97981 3.56014 5.93015 3.57789 5.88561L4.62601 3.41529C5.56888 2.67858 6.65781 2.15108 7.82036 1.86788C8.98292 1.58467 10.1925 1.55226 11.3685 1.77279ZM1.37476 10.0659C1.37332 8.62934 1.74067 7.21644 2.44164 5.96248C2.4418 6.11844 2.47007 6.2731 2.52507 6.41904L3.60226 9.29436C3.67888 9.50066 3.80636 9.68427 3.97287 9.82816C4.13938 9.97206 4.33953 10.0716 4.55476 10.1175L6.56476 10.5487C6.59269 10.5548 6.61886 10.5671 6.64128 10.5848C6.6637 10.6026 6.68178 10.6252 6.69413 10.6509L7.05039 11.3878C7.15845 11.6093 7.32638 11.796 7.53516 11.9269C7.74394 12.0578 7.98521 12.1276 8.23164 12.1284H8.65913L7.8632 13.9097C7.75876 14.1442 7.7254 14.4042 7.76722 14.6574C7.80905 14.9107 7.92423 15.1462 8.09851 15.3347L8.10789 15.345L9.95289 17.2444C9.97176 17.2659 9.98546 17.2914 9.99293 17.319C10.0004 17.3467 10.0015 17.3756 9.99601 17.4037L9.78413 18.5034C7.55201 18.4935 5.41455 17.6005 3.83882 16.0195C2.2631 14.4385 1.37722 12.2981 1.37476 10.0659ZM10.9448 18.4275L11.1013 17.6212C11.1398 17.419 11.1304 17.2106 11.074 17.0126C11.0175 16.8147 10.9154 16.6327 10.776 16.4812L10.7666 16.4709L8.92164 14.5715C8.89776 14.5446 8.88215 14.5114 8.87667 14.4758C8.87118 14.4402 8.87605 14.4038 8.8907 14.3709L10.1751 11.49C10.1914 11.452 10.2198 11.4204 10.2559 11.4002C10.2921 11.38 10.3338 11.3724 10.3748 11.3784L12.5141 11.6672C12.54 11.6704 12.5649 11.6791 12.5873 11.6925L17.031 14.43C16.3785 15.5077 15.4933 16.4259 14.4403 17.1176C13.3873 17.8092 12.193 18.2567 10.9448 18.4275Z" fill="black"/>
</svg>
