<svg width="22" height="16" viewBox="0 0 22 16" fill="none" xmlns="http://www.w3.org/2000/svg">
<path d="M20.5623 11.7534H19.6248V2.56592C19.6248 2.01891 19.4075 1.4943 19.0207 1.10751C18.6339 0.720716 18.1093 0.503418 17.5623 0.503418H4.06226C3.51525 0.503418 2.99064 0.720716 2.60385 1.10751C2.21705 1.4943 1.99976 2.01891 1.99976 2.56592V11.7534H1.06226C0.913072 11.7534 0.769997 11.8127 0.664508 11.9182C0.559019 12.0237 0.499756 12.1667 0.499756 12.3159V13.8159C0.499756 14.3629 0.717054 14.8875 1.10385 15.2743C1.49064 15.6611 2.01525 15.8784 2.56226 15.8784H19.0623C19.6093 15.8784 20.1339 15.6611 20.5207 15.2743C20.9075 14.8875 21.1248 14.3629 21.1248 13.8159V12.3159C21.1248 12.1667 21.0655 12.0237 20.96 11.9182C20.8545 11.8127 20.7114 11.7534 20.5623 11.7534ZM3.12476 2.56592C3.12476 2.31728 3.22353 2.07882 3.39934 1.90301C3.57516 1.72719 3.81362 1.62842 4.06226 1.62842H17.5623C17.8109 1.62842 18.0494 1.72719 18.2252 1.90301C18.401 2.07882 18.4998 2.31728 18.4998 2.56592V11.7534H3.12476V2.56592ZM19.9998 13.8159C19.9998 14.0646 19.901 14.303 19.7252 14.4788C19.5494 14.6546 19.3109 14.7534 19.0623 14.7534H2.56226C2.31362 14.7534 2.07516 14.6546 1.89934 14.4788C1.72353 14.303 1.62476 14.0646 1.62476 13.8159V12.8784H19.9998V13.8159ZM12.8748 4.06592C12.8748 4.2151 12.8155 4.35818 12.71 4.46367C12.6045 4.56915 12.4614 4.62842 12.3123 4.62842H9.31226C9.16307 4.62842 9.02 4.56915 8.91451 4.46367C8.80902 4.35818 8.74976 4.2151 8.74976 4.06592C8.74976 3.91673 8.80902 3.77366 8.91451 3.66817C9.02 3.56268 9.16307 3.50342 9.31226 3.50342H12.3123C12.4614 3.50342 12.6045 3.56268 12.71 3.66817C12.8155 3.77366 12.8748 3.91673 12.8748 4.06592Z" fill="black"/>
</svg>
