<svg width="23" height="16" viewBox="0 0 23 16" fill="none" xmlns="http://www.w3.org/2000/svg">
<path d="M22.7388 6.07094L18.4685 1.09375C18.3451 0.946764 18.1911 0.828615 18.0171 0.747626C17.8431 0.666637 17.6535 0.624779 17.4616 0.625001H2.06226C1.71416 0.625001 1.38032 0.763282 1.13418 1.00942C0.888037 1.25556 0.749756 1.5894 0.749756 1.9375V12.4375C0.749756 12.7856 0.888037 13.1194 1.13418 13.3656C1.38032 13.6117 1.71416 13.75 2.06226 13.75H3.80601C3.93511 14.3858 4.28004 14.9574 4.78236 15.368C5.28468 15.7785 5.91349 16.0028 6.56226 16.0028C7.21102 16.0028 7.83983 15.7785 8.34215 15.368C8.84447 14.9574 9.1894 14.3858 9.31851 13.75H14.306C14.4351 14.3858 14.78 14.9574 15.2824 15.368C15.7847 15.7785 16.4135 16.0028 17.0623 16.0028C17.711 16.0028 18.3398 15.7785 18.8422 15.368C19.3445 14.9574 19.6894 14.3858 19.8185 13.75H21.5623C21.9104 13.75 22.2442 13.6117 22.4903 13.3656C22.7365 13.1194 22.8748 12.7856 22.8748 12.4375V6.4375C22.8747 6.30299 22.8265 6.17294 22.7388 6.07094ZM17.6107 1.82219L21.0879 5.875H15.3748V1.75H17.4616C17.4903 1.74982 17.5187 1.75623 17.5446 1.76874C17.5704 1.78126 17.593 1.79954 17.6107 1.82219ZM8.62476 5.875V1.75H14.2498V5.875H8.62476ZM2.06226 1.75H7.49976V5.875H1.87476V1.9375C1.87476 1.88777 1.89451 1.84008 1.92967 1.80492C1.96484 1.76976 2.01253 1.75 2.06226 1.75ZM6.56226 14.875C6.2285 14.875 5.90224 14.776 5.62473 14.5906C5.34722 14.4052 5.13093 14.1416 5.00321 13.8333C4.87549 13.5249 4.84207 13.1856 4.90718 12.8583C4.97229 12.5309 5.13301 12.2303 5.36901 11.9943C5.60501 11.7583 5.9057 11.5975 6.23304 11.5324C6.56038 11.4673 6.89968 11.5007 7.20803 11.6285C7.51638 11.7562 7.77994 11.9725 7.96536 12.25C8.15079 12.5275 8.24976 12.8537 8.24976 13.1875C8.24976 13.6351 8.07197 14.0643 7.7555 14.3807C7.43903 14.6972 7.00981 14.875 6.56226 14.875ZM17.0623 14.875C16.7285 14.875 16.4022 14.776 16.1247 14.5906C15.8472 14.4052 15.6309 14.1416 15.5032 13.8333C15.3755 13.5249 15.3421 13.1856 15.4072 12.8583C15.4723 12.5309 15.633 12.2303 15.869 11.9943C16.105 11.7583 16.4057 11.5975 16.733 11.5324C17.0604 11.4673 17.3997 11.5007 17.708 11.6285C18.0164 11.7562 18.2799 11.9725 18.4654 12.25C18.6508 12.5275 18.7498 12.8537 18.7498 13.1875C18.7498 13.6351 18.572 14.0643 18.2555 14.3807C17.939 14.6972 17.5098 14.875 17.0623 14.875ZM21.5623 12.625H19.8185C19.6894 11.9892 19.3445 11.4176 18.8422 11.007C18.3398 10.5965 17.711 10.3722 17.0623 10.3722C16.4135 10.3722 15.7847 10.5965 15.2824 11.007C14.78 11.4176 14.4351 11.9892 14.306 12.625H9.31851C9.1894 11.9892 8.84447 11.4176 8.34215 11.007C7.83983 10.5965 7.21102 10.3722 6.56226 10.3722C5.91349 10.3722 5.28468 10.5965 4.78236 11.007C4.28004 11.4176 3.93511 11.9892 3.80601 12.625H2.06226C2.01253 12.625 1.96484 12.6052 1.92967 12.5701C1.89451 12.5349 1.87476 12.4872 1.87476 12.4375V7H21.7498V12.4375C21.7498 12.4872 21.73 12.5349 21.6948 12.5701C21.6597 12.6052 21.612 12.625 21.5623 12.625Z" fill="black"/>
</svg>
