<svg width="23" height="17" viewBox="0 0 23 17" fill="none" xmlns="http://www.w3.org/2000/svg">
<path d="M22.6974 8.56428C22.614 8.41764 22.5023 8.28907 22.3687 8.18606C22.2351 8.08305 22.0823 8.00766 21.9193 7.96428C21.1798 7.77521 20.4139 7.71182 19.6534 7.77678C20.0912 5.84272 19.8052 4.31647 19.5174 3.42678C19.417 3.11249 19.2031 2.84686 18.9175 2.68168C18.6318 2.51651 18.2949 2.46363 17.9724 2.53334C16.9714 2.75786 16.0237 3.17533 15.1824 3.76241C14.5969 2.48871 13.7117 1.37574 12.6024 0.518656C12.3748 0.347154 12.0976 0.254395 11.8126 0.254395C11.5276 0.254395 11.2504 0.347154 11.0227 0.518656C9.91407 1.37612 9.02922 2.48901 8.44368 3.76241C7.60215 3.17512 6.65413 2.75763 5.65274 2.53334C5.33024 2.46371 4.99336 2.51676 4.70787 2.68213C4.42237 2.8475 4.20874 3.11332 4.10868 3.42772C3.82087 4.31741 3.53493 5.84366 3.97274 7.77772C3.21226 7.71276 2.44627 7.77614 1.70681 7.96522C1.54378 8.0086 1.39102 8.08399 1.25743 8.187C1.12384 8.29001 1.01208 8.41858 0.928681 8.56522C0.841029 8.71592 0.784278 8.88257 0.761743 9.05545C0.739208 9.22833 0.75134 9.40396 0.797431 9.57209C1.10774 10.7233 2.06306 12.9115 4.96181 14.6468C7.86056 16.3821 10.434 16.3802 11.8131 16.3802C13.1921 16.3802 15.7618 16.3802 18.6624 14.6468C21.5631 12.9133 22.5165 10.7233 22.8268 9.57116C22.8732 9.40314 22.8856 9.22758 22.8634 9.05471C22.8412 8.88183 22.7848 8.71511 22.6974 8.56428ZM15.6081 4.83959C16.3799 4.25755 17.2662 3.84541 18.2087 3.63022C18.2587 3.62 18.3108 3.62873 18.3548 3.65471C18.3988 3.68069 18.4316 3.72207 18.4468 3.77084C18.8162 4.91647 19.179 7.28647 17.454 10.2865C16.7615 11.4698 15.874 12.5275 14.829 13.4149C15.549 12.1615 16.1256 10.4674 16.1256 8.23991C16.1343 7.08621 15.9596 5.93845 15.6081 4.83959ZM5.17931 3.77366C5.19397 3.72436 5.22652 3.68233 5.27057 3.65579C5.31462 3.62926 5.367 3.62014 5.41743 3.63022C6.3599 3.84541 7.24618 4.25755 8.01806 4.83959C7.66648 5.93845 7.4918 7.08621 7.50056 8.23991C7.50056 10.4674 8.07712 12.1633 8.79524 13.4121C7.74997 12.5249 6.86244 11.4671 6.17024 10.2837C4.44712 7.28647 4.80993 4.91647 5.17931 3.77366ZM5.53931 13.6802C2.97993 12.1512 2.15024 10.2658 1.88306 9.27397C1.87605 9.24877 1.87418 9.22243 1.87756 9.1965C1.88095 9.17057 1.88951 9.14558 1.90274 9.12303C1.9231 9.08683 1.95671 9.05994 1.99649 9.04803C2.75417 8.85976 3.54194 8.82564 4.31306 8.94772C4.55092 9.60637 4.84677 10.2426 5.19712 10.849C6.15896 12.5088 7.47057 13.9394 9.04087 15.0415C7.80292 14.7965 6.61769 14.3357 5.53931 13.6802ZM11.8131 15.1483C10.9993 14.5671 8.62556 12.5046 8.62556 8.23991C8.62556 4.17491 10.7762 2.11428 11.7006 1.41678C11.733 1.39244 11.7725 1.37928 11.8131 1.37928C11.8536 1.37928 11.8931 1.39244 11.9256 1.41678C12.8499 2.11428 15.0006 4.17491 15.0006 8.23991C15.0006 12.5308 12.639 14.568 11.8131 15.1483ZM21.7412 9.27772C21.474 10.2658 20.6443 12.1512 18.0849 13.684C17.0054 14.3381 15.8192 14.7973 14.5806 15.0405C16.1508 13.9385 17.4625 12.5079 18.4243 10.848C18.7762 10.2421 19.0736 9.60621 19.3131 8.94772C20.085 8.82661 20.8735 8.862 21.6315 9.05178C21.6713 9.06369 21.7049 9.09058 21.7252 9.12678C21.7382 9.14947 21.7464 9.17452 21.7495 9.20044C21.7525 9.22637 21.7503 9.25265 21.7431 9.27772H21.7412Z" fill="black"/>
</svg>
