<svg width="257" height="41" viewBox="0 0 257 41" fill="none" xmlns="http://www.w3.org/2000/svg">
<path fill-rule="evenodd" clip-rule="evenodd" d="M26.1065 12.0476C24.462 10.9488 22.5286 10.3623 20.5508 10.3623V0.362305C24.5064 0.362305 28.3732 1.53528 31.6622 3.73291C34.9512 5.93053 37.5146 9.05412 39.0284 12.7086C40.5421 16.3631 40.9382 20.3845 40.1665 24.2641C39.3948 28.1437 37.49 31.7074 34.6929 34.5044C31.8959 37.3015 28.3322 39.2063 24.4526 39.978C20.573 40.7497 16.5516 40.3536 12.8971 38.8399C9.24259 37.3261 6.11901 34.7627 3.92139 31.4737C1.72376 28.1847 0.550781 24.3179 0.550781 20.3623H10.5508C10.5508 22.3401 11.1373 24.2735 12.2361 25.918C13.3349 27.5625 14.8967 28.8442 16.724 29.6011C18.5512 30.358 20.5619 30.556 22.5017 30.1701C24.4415 29.7843 26.2233 28.8319 27.6219 27.4334C29.0204 26.0348 29.9728 24.253 30.3586 22.3132C30.7445 20.3734 30.5465 18.3627 29.7896 16.5355C29.0327 14.7082 27.751 13.1464 26.1065 12.0476Z" fill="white"/>
<path fill-rule="evenodd" clip-rule="evenodd" d="M10.5508 0.362309C10.5508 1.67553 10.2921 2.97589 9.78958 4.18914C9.28703 5.4024 8.55044 6.50479 7.62185 7.43338C6.69327 8.36197 5.59088 9.09856 4.37762 9.60111C3.16436 10.1036 1.864 10.3623 0.550782 10.3623L0.550781 20.3623C3.17722 20.3623 5.77794 19.845 8.20446 18.8399C10.631 17.8348 12.8358 16.3616 14.6929 14.5044C16.5501 12.6473 18.0233 10.4425 19.0284 8.01598C20.0335 5.58946 20.5508 2.98874 20.5508 0.362305L10.5508 0.362309Z" fill="white"/>
<path d="M57.6308 31.8743C55.7961 31.8743 54.2281 31.501 52.9268 30.7543C51.6254 29.9863 50.6334 28.941 49.9508 27.6183C49.2894 26.2957 48.9481 24.7703 48.9268 23.0423L54.4948 22.7863C54.5588 25.8157 55.6041 27.3303 57.6308 27.3303C58.5908 27.3303 59.3374 26.989 59.8708 26.3063C60.4041 25.6023 60.6708 24.5357 60.6708 23.1063V8.64233H66.2388V23.1063C66.2388 24.8557 65.8761 26.4023 65.1508 27.7463C64.4254 29.069 63.4121 30.093 62.1108 30.8183C60.8308 31.5223 59.3374 31.8743 57.6308 31.8743Z" fill="white"/>
<path d="M73.9418 31.7463C72.0858 31.7463 70.5924 31.3303 69.4618 30.4983C68.3524 29.6663 67.7978 28.5143 67.7978 27.0423C67.7978 25.5703 68.2671 24.4183 69.2058 23.5863C70.1658 22.733 71.6164 22.1037 73.5578 21.6983L78.9018 20.6103C78.9018 19.6077 78.6778 18.8503 78.2298 18.3383C77.8031 17.805 77.1738 17.5383 76.3418 17.5383C74.7418 17.5383 73.8138 18.2957 73.5578 19.8103L68.0858 19.6183C68.4271 17.6557 69.3018 16.1943 70.7098 15.2343C72.1178 14.253 73.9951 13.7623 76.3418 13.7623C81.7178 13.7623 84.4058 16.1837 84.4058 21.0263V26.4663C84.4058 26.9783 84.4804 27.3303 84.6298 27.5223C84.8004 27.693 85.0564 27.7783 85.3978 27.7783H85.8138V31.3623C85.5791 31.4263 85.2804 31.4797 84.9178 31.5223C84.5551 31.565 84.2031 31.5863 83.8618 31.5863C81.6431 31.5863 80.3311 30.6263 79.9258 28.7063C79.4564 29.6663 78.7204 30.413 77.7178 30.9463C76.7151 31.4797 75.4564 31.7463 73.9418 31.7463ZM75.3498 28.1623C76.4164 28.1623 77.2698 27.853 77.9098 27.2343C78.5711 26.5943 78.9018 25.6983 78.9018 24.5463V23.8423L75.5418 24.6103C74.1551 24.909 73.4618 25.549 73.4618 26.5303C73.4618 27.0423 73.6218 27.4477 73.9418 27.7463C74.2618 28.0237 74.7311 28.1623 75.3498 28.1623Z" fill="white"/>
<path d="M87.224 14.1463H92.152L92.28 16.8663C92.728 15.885 93.3573 15.1277 94.168 14.5943C94.9787 14.0397 95.896 13.7623 96.92 13.7623C98.1147 13.7623 99.1173 14.0717 99.928 14.6903C100.76 15.309 101.368 16.1623 101.752 17.2503C102.157 16.1197 102.776 15.2557 103.608 14.6583C104.44 14.061 105.421 13.7623 106.552 13.7623C108.323 13.7623 109.731 14.3277 110.776 15.4583C111.843 16.589 112.376 18.1997 112.376 20.2903V31.3623H106.872V21.8583C106.872 20.557 106.691 19.597 106.328 18.9783C105.965 18.3597 105.389 18.0503 104.6 18.0503C103.832 18.0503 103.245 18.3917 102.84 19.0743C102.435 19.7357 102.232 20.685 102.232 21.9223V31.3623H97.336V21.9223C97.336 20.5997 97.1653 19.629 96.824 19.0103C96.4827 18.3703 95.9067 18.0503 95.096 18.0503C94.328 18.0503 93.7413 18.3917 93.336 19.0743C92.9307 19.7357 92.728 20.685 92.728 21.9223V31.3623H87.224V14.1463Z" fill="white"/>
<path d="M125.535 31.7463C124.341 31.7463 123.306 31.501 122.431 31.0103C121.557 30.4983 120.874 29.7837 120.383 28.8663L120.287 31.3623H114.975V8.64233H120.479V16.6103C120.97 15.757 121.653 15.0743 122.527 14.5623C123.402 14.029 124.405 13.7623 125.535 13.7623C126.965 13.7623 128.213 14.1357 129.279 14.8823C130.346 15.6077 131.167 16.653 131.743 18.0183C132.341 19.3837 132.639 20.9623 132.639 22.7543C132.639 24.5463 132.341 26.125 131.743 27.4903C131.167 28.8557 130.346 29.9117 129.279 30.6583C128.213 31.3837 126.965 31.7463 125.535 31.7463ZM123.807 27.6823C124.767 27.6823 125.535 27.245 126.111 26.3703C126.687 25.4957 126.975 24.2903 126.975 22.7543C126.975 21.197 126.687 19.9917 126.111 19.1383C125.557 18.2637 124.799 17.8263 123.839 17.8263C122.773 17.8263 121.941 18.253 121.343 19.1063C120.767 19.9597 120.479 21.1757 120.479 22.7543C120.479 24.3117 120.767 25.5277 121.343 26.4023C121.941 27.2557 122.762 27.6823 123.807 27.6823Z" fill="white"/>
<path d="M142.388 31.7463C140.596 31.7463 139.017 31.373 137.652 30.6263C136.287 29.8797 135.231 28.8343 134.484 27.4903C133.737 26.125 133.364 24.5463 133.364 22.7543C133.364 20.9623 133.737 19.3943 134.484 18.0503C135.231 16.685 136.287 15.629 137.652 14.8823C139.017 14.1357 140.596 13.7623 142.388 13.7623C144.18 13.7623 145.759 14.1357 147.124 14.8823C148.489 15.629 149.545 16.685 150.292 18.0503C151.039 19.3943 151.412 20.9623 151.412 22.7543C151.412 24.5463 151.039 26.125 150.292 27.4903C149.545 28.8343 148.489 29.8797 147.124 30.6263C145.759 31.373 144.18 31.7463 142.388 31.7463ZM142.388 27.6823C143.455 27.6823 144.276 27.2557 144.852 26.4023C145.449 25.549 145.748 24.333 145.748 22.7543C145.748 21.197 145.449 19.9917 144.852 19.1383C144.276 18.2637 143.455 17.8263 142.388 17.8263C141.3 17.8263 140.468 18.2637 139.892 19.1383C139.316 19.9917 139.028 21.197 139.028 22.7543C139.028 24.333 139.316 25.549 139.892 26.4023C140.468 27.2557 141.3 27.6823 142.388 27.6823Z" fill="white"/>
<path d="M159.234 8.64233H164.802V17.6343H172.482V8.64233H178.05V31.3623H172.482V22.2103H164.802V31.3623H159.234V8.64233Z" fill="white"/>
<path d="M188.923 31.7463C187.131 31.7463 185.552 31.373 184.187 30.6263C182.822 29.8797 181.766 28.8343 181.019 27.4903C180.272 26.125 179.899 24.5463 179.899 22.7543C179.899 20.9623 180.272 19.3943 181.019 18.0503C181.766 16.685 182.822 15.629 184.187 14.8823C185.552 14.1357 187.131 13.7623 188.923 13.7623C190.715 13.7623 192.294 14.1357 193.659 14.8823C195.024 15.629 196.08 16.685 196.827 18.0503C197.574 19.3943 197.947 20.9623 197.947 22.7543C197.947 24.5463 197.574 26.125 196.827 27.4903C196.08 28.8343 195.024 29.8797 193.659 30.6263C192.294 31.373 190.715 31.7463 188.923 31.7463ZM188.923 27.6823C189.99 27.6823 190.811 27.2557 191.387 26.4023C191.984 25.549 192.283 24.333 192.283 22.7543C192.283 21.197 191.984 19.9917 191.387 19.1383C190.811 18.2637 189.99 17.8263 188.923 17.8263C187.835 17.8263 187.003 18.2637 186.427 19.1383C185.851 19.9917 185.563 21.197 185.563 22.7543C185.563 24.333 185.851 25.549 186.427 26.4023C187.003 27.2557 187.835 27.6823 188.923 27.6823Z" fill="white"/>
<path d="M206.406 31.3623C204.549 31.3623 203.184 30.925 202.31 30.0503C201.456 29.1757 201.029 27.7997 201.029 25.9223V18.1143H198.182V14.1463H201.029V10.1143H206.534V14.1463H211.046V18.1143H206.534V25.2183C206.534 26.029 206.704 26.5943 207.046 26.9143C207.387 27.2343 207.931 27.3943 208.678 27.3943H211.046V31.3623H206.406Z" fill="white"/>
<path d="M220.424 31.7463C218.632 31.7463 217.053 31.373 215.688 30.6263C214.344 29.8797 213.299 28.8343 212.552 27.4903C211.827 26.125 211.464 24.5463 211.464 22.7543C211.464 20.9623 211.827 19.3943 212.552 18.0503C213.299 16.685 214.344 15.629 215.688 14.8823C217.032 14.1357 218.6 13.7623 220.392 13.7623C222.163 13.7623 223.699 14.1463 225 14.9143C226.323 15.661 227.336 16.749 228.04 18.1783C228.744 19.5863 229.096 21.2503 229.096 23.1703V24.1943H217.128C217.171 25.3677 217.491 26.253 218.088 26.8503C218.685 27.4477 219.496 27.7463 220.52 27.7463C222.035 27.7463 222.984 27.1277 223.368 25.8903L228.872 26.2103C228.403 27.981 227.421 29.3463 225.928 30.3063C224.435 31.2663 222.6 31.7463 220.424 31.7463ZM223.56 21.0583C223.496 19.949 223.187 19.1063 222.632 18.5303C222.077 17.9543 221.331 17.6663 220.392 17.6663C219.475 17.6663 218.717 17.965 218.12 18.5623C217.544 19.1597 217.213 19.9917 217.128 21.0583H223.56Z" fill="white"/>
<path d="M235.629 31.3623C234.051 31.3623 232.845 30.9677 232.013 30.1783C231.181 29.389 230.765 28.1517 230.765 26.4663V8.64233H236.269V25.8583C236.269 26.3917 236.397 26.7863 236.653 27.0423C236.909 27.277 237.283 27.3943 237.773 27.3943H238.797V31.3623H235.629Z" fill="white"/>
<path d="M247.979 31.7463C245.291 31.7463 243.222 31.2237 241.771 30.1783C240.342 29.1117 239.563 27.7037 239.435 25.9543L244.971 25.7623C245.121 26.5303 245.441 27.1063 245.931 27.4903C246.422 27.8743 247.115 28.0663 248.011 28.0663C249.569 28.0663 250.347 27.5757 250.347 26.5943C250.347 26.0823 250.134 25.6983 249.707 25.4423C249.302 25.165 248.459 24.9197 247.179 24.7063C245.281 24.4077 243.809 24.045 242.763 23.6183C241.718 23.1703 240.971 22.6157 240.523 21.9543C240.075 21.293 239.851 20.429 239.851 19.3623C239.851 17.6343 240.534 16.269 241.899 15.2663C243.265 14.2637 245.259 13.7623 247.883 13.7623C250.337 13.7623 252.235 14.3063 253.579 15.3943C254.945 16.461 255.734 17.933 255.947 19.8103L250.475 20.0023C250.369 19.1917 250.081 18.5623 249.611 18.1143C249.163 17.6663 248.566 17.4423 247.819 17.4423C247.094 17.4423 246.529 17.6023 246.123 17.9223C245.718 18.221 245.515 18.637 245.515 19.1703C245.515 19.725 245.718 20.141 246.123 20.4183C246.55 20.6743 247.307 20.8877 248.395 21.0583C251.147 21.4423 253.099 22.061 254.251 22.9143C255.425 23.7463 256.011 24.9303 256.011 26.4663C256.011 28.1517 255.297 29.453 253.867 30.3703C252.459 31.2877 250.497 31.7463 247.979 31.7463Z" fill="white"/>
</svg>
