<svg width="20" height="20" viewBox="0 0 20 20" fill="none" xmlns="http://www.w3.org/2000/svg">
<path d="M9.5625 0C7.67122 0 5.82241 0.560831 4.24986 1.61157C2.67732 2.66231 1.45167 4.15577 0.727906 5.90309C0.00414312 7.65041 -0.185226 9.57311 0.183745 11.4281C0.552716 13.283 1.46346 14.9869 2.8008 16.3242C4.13814 17.6615 5.84201 18.5723 7.69695 18.9413C9.5519 19.3102 11.4746 19.1209 13.2219 18.3971C14.9692 17.6733 16.4627 16.4477 17.5134 14.8751C18.5642 13.3026 19.125 11.4538 19.125 9.5625C19.122 7.02728 18.1136 4.59675 16.3209 2.80408C14.5283 1.01141 12.0977 0.00297736 9.5625 0ZM18 9.5625C18.0018 11.6057 17.2589 13.5795 15.9103 15.1144L4.01063 3.21469C5.22986 2.14667 6.73105 1.45265 8.3345 1.21572C9.93794 0.978782 11.5757 1.20897 13.0517 1.87872C14.5277 2.54848 15.7794 3.62942 16.657 4.99215C17.5346 6.35487 18.0009 7.94164 18 9.5625ZM1.125 9.5625C1.12318 7.51932 1.8661 5.54552 3.21469 4.01062L15.1144 15.9103C13.8952 16.9783 12.394 17.6723 10.7905 17.9093C9.18707 18.1462 7.54931 17.916 6.0733 17.2463C4.59728 16.5765 3.34556 15.4956 2.46798 14.1329C1.59039 12.7701 1.12413 11.1834 1.125 9.5625Z" fill="black"/>
</svg>
