<svg width="20" height="20" viewBox="0 0 20 20" fill="none" xmlns="http://www.w3.org/2000/svg">
<path d="M17.812 4.49951H10.1245V0.562005C10.1244 0.450825 10.0914 0.342168 10.0295 0.249756C9.96773 0.157344 9.87992 0.0853238 9.7772 0.0427903C9.67447 0.000256749 9.56145 -0.0108818 9.4524 0.0107815C9.34335 0.0324448 9.24317 0.0859382 9.1645 0.164506L0.164505 9.16451C0.0591672 9.26997 0 9.41294 0 9.56201C0 9.71107 0.0591672 9.85404 0.164505 9.95951L9.1645 18.9595C9.24317 19.0381 9.34335 19.0916 9.4524 19.1132C9.56145 19.1349 9.67447 19.1238 9.7772 19.0812C9.87992 19.0387 9.96773 18.9667 10.0295 18.8743C10.0914 18.7818 10.1244 18.6732 10.1245 18.562V14.6245H17.812C18.1601 14.6245 18.4939 14.4862 18.7401 14.2401C18.9862 13.9939 19.1245 13.6601 19.1245 13.312V5.81201C19.1245 5.46391 18.9862 5.13007 18.7401 4.88393C18.4939 4.63779 18.1601 4.49951 17.812 4.49951ZM17.9995 13.312C17.9995 13.3617 17.9797 13.4094 17.9446 13.4446C17.9094 13.4798 17.8617 13.4995 17.812 13.4995H9.562C9.41282 13.4995 9.26975 13.5588 9.16426 13.6643C9.05877 13.7697 8.9995 13.9128 8.9995 14.062V17.2036L1.35794 9.56201L8.9995 1.92044V5.06201C8.9995 5.21119 9.05877 5.35426 9.16426 5.45975C9.26975 5.56524 9.41282 5.62451 9.562 5.62451H17.812C17.8617 5.62451 17.9094 5.64426 17.9446 5.67942C17.9797 5.71459 17.9995 5.76228 17.9995 5.81201V13.312Z" fill="black"/>
</svg>
