<svg width="20" height="20" viewBox="0 0 20 20" fill="none" xmlns="http://www.w3.org/2000/svg">
<path d="M18.96 9.16451L9.96 0.164506C9.88133 0.0859382 9.78115 0.0324448 9.6721 0.0107815C9.56305 -0.0108818 9.45003 0.000256749 9.34731 0.0427903C9.24458 0.0853238 9.15677 0.157344 9.09496 0.249756C9.03314 0.342168 9.0001 0.450825 9 0.562005V4.49951H1.3125C0.964403 4.49951 0.630564 4.63779 0.384422 4.88393C0.138281 5.13007 0 5.46391 0 5.81201V13.312C0 13.6601 0.138281 13.9939 0.384422 14.2401C0.630564 14.4862 0.964403 14.6245 1.3125 14.6245H9V18.562C9.0001 18.6732 9.03314 18.7818 9.09496 18.8743C9.15677 18.9667 9.24458 19.0387 9.34731 19.0812C9.45003 19.1238 9.56305 19.1349 9.6721 19.1132C9.78115 19.0916 9.88133 19.0381 9.96 18.9595L18.96 9.95951C19.0653 9.85404 19.1245 9.71107 19.1245 9.56201C19.1245 9.41294 19.0653 9.26997 18.96 9.16451ZM10.125 17.2036V14.062C10.125 13.9128 10.0657 13.7697 9.96025 13.6643C9.85476 13.5588 9.71168 13.4995 9.5625 13.4995H1.3125C1.26277 13.4995 1.21508 13.4798 1.17992 13.4446C1.14475 13.4094 1.125 13.3617 1.125 13.312V5.81201C1.125 5.76228 1.14475 5.71459 1.17992 5.67942C1.21508 5.64426 1.26277 5.62451 1.3125 5.62451H9.5625C9.71168 5.62451 9.85476 5.56524 9.96025 5.45975C10.0657 5.35426 10.125 5.21119 10.125 5.06201V1.92044L17.7666 9.56201L10.125 17.2036Z" fill="black"/>
</svg>
