<svg width="21" height="20" viewBox="0 0 21 20" fill="none" xmlns="http://www.w3.org/2000/svg">
<path d="M3.22875 1.6875C3.12577 1.59192 2.99076 1.53834 2.85026 1.5373C2.70977 1.53625 2.57397 1.58782 2.46958 1.68186C2.3652 1.77591 2.29978 1.90561 2.28621 2.04545C2.27264 2.18529 2.31189 2.32515 2.39625 2.4375L9.72281 10.5H1.3125C0.964403 10.5 0.630564 10.6383 0.384422 10.8844C0.138281 11.1306 0 11.4644 0 11.8125V14.8125C0 15.1606 0.138281 15.4944 0.384422 15.7406C0.630564 15.9867 0.964403 16.125 1.3125 16.125H14.8359L17.3962 18.9375C17.4967 19.0479 17.6369 19.1139 17.786 19.1209C17.9351 19.1279 18.0809 19.0755 18.1912 18.975C18.3016 18.8746 18.3676 18.7344 18.3746 18.5853C18.3817 18.4362 18.3292 18.2904 18.2288 18.18L3.22875 1.6875ZM1.125 14.8125V11.8125C1.125 11.7628 1.14475 11.7151 1.17992 11.6799C1.21508 11.6448 1.26277 11.625 1.3125 11.625H6V15H1.3125C1.26277 15 1.21508 14.9803 1.17992 14.9451C1.14475 14.9099 1.125 14.8622 1.125 14.8125ZM7.125 15V11.625H10.7456L13.8141 15H7.125ZM20.625 11.8125V14.8125C20.625 15.1606 20.4867 15.4944 20.2406 15.7406C19.9944 15.9867 19.6606 16.125 19.3125 16.125H19.14C18.9908 16.125 18.8477 16.0657 18.7423 15.9603C18.6368 15.8548 18.5775 15.7117 18.5775 15.5625C18.5775 15.4133 18.6368 15.2702 18.7423 15.1648C18.8477 15.0593 18.9908 15 19.14 15H19.3125C19.3622 15 19.4099 14.9803 19.4451 14.9451C19.4802 14.9099 19.5 14.8622 19.5 14.8125V11.8125C19.5 11.7628 19.4802 11.7151 19.4451 11.6799C19.4099 11.6448 19.3622 11.625 19.3125 11.625H15.0488C14.8996 11.625 14.7565 11.5657 14.651 11.4603C14.5455 11.3548 14.4863 11.2117 14.4863 11.0625C14.4863 10.9133 14.5455 10.7702 14.651 10.6648C14.7565 10.5593 14.8996 10.5 15.0488 10.5H19.3125C19.6606 10.5 19.9944 10.6383 20.2406 10.8844C20.4867 11.1306 20.625 11.4644 20.625 11.8125ZM17.3222 4.03688C18.0544 2.73563 18.0637 1.98282 17.9428 1.58063C17.8899 1.37018 17.758 1.1882 17.5744 1.0725C17.4582 1.01845 17.3639 0.92634 17.3072 0.811426C17.2505 0.696512 17.2348 0.56568 17.2625 0.440582C17.2903 0.315484 17.36 0.20362 17.46 0.123501C17.56 0.0433831 17.6844 -0.0001859 17.8125 4.76931e-06C17.8914 -0.000323541 17.9694 0.0163019 18.0413 0.0487548C18.2699 0.165878 18.4727 0.327836 18.6375 0.524978C18.8022 0.722121 18.9256 0.950414 19.0003 1.19625C19.2984 2.09438 19.0641 3.23532 18.3028 4.58813C17.5706 5.88938 17.5613 6.64219 17.6822 7.04438C17.7338 7.25362 17.8641 7.43493 18.0459 7.55063C18.1629 7.6039 18.258 7.69558 18.3156 7.81044C18.3732 7.92529 18.3897 8.05639 18.3624 8.18194C18.3351 8.30748 18.2657 8.41991 18.1656 8.50052C18.0656 8.58112 17.941 8.62506 17.8125 8.62501C17.7336 8.62533 17.6556 8.60871 17.5837 8.57626C17.3551 8.45913 17.1523 8.29717 16.9875 8.10003C16.8228 7.90289 16.6994 7.6746 16.6247 7.42875C16.3266 6.53063 16.5609 5.38969 17.3222 4.03688ZM13.5722 4.03688C14.3044 2.73563 14.3137 1.98282 14.1928 1.58063C14.1399 1.37018 14.008 1.1882 13.8244 1.0725C13.7082 1.01845 13.6139 0.92634 13.5572 0.811426C13.5005 0.696512 13.4848 0.56568 13.5125 0.440582C13.5403 0.315484 13.61 0.20362 13.71 0.123501C13.81 0.0433831 13.9344 -0.0001859 14.0625 4.76931e-06C14.1414 -0.000323541 14.2194 0.0163019 14.2913 0.0487548C14.5199 0.165878 14.7227 0.327836 14.8875 0.524978C15.0522 0.722121 15.1756 0.950414 15.2503 1.19625C15.5484 2.09438 15.3141 3.23532 14.5528 4.58813C13.8206 5.88938 13.8113 6.64219 13.9322 7.04438C13.9838 7.25362 14.1141 7.43493 14.2959 7.55063C14.4129 7.6039 14.508 7.69558 14.5656 7.81044C14.6232 7.92529 14.6397 8.05639 14.6124 8.18194C14.5851 8.30748 14.5157 8.41991 14.4156 8.50052C14.3156 8.58112 14.191 8.62506 14.0625 8.62501C13.9836 8.62533 13.9056 8.60871 13.8337 8.57626C13.6051 8.45913 13.4023 8.29717 13.2375 8.10003C13.0728 7.90289 12.9494 7.6746 12.8747 7.42875C12.5766 6.53063 12.8109 5.38969 13.5722 4.03688Z" fill="black"/>
</svg>
